<svg xmlns="http://www.w3.org/2000/svg" width="1150" height="34" viewBox="0 0 1150 34"><path fill="#FFF" d="M1121.252 0c-14.375 0-14.375 14-28.75 14s-14.373-14-28.747-14-14.374 14-28.748 14c-14.375 0-14.375-14-28.75-14-14.374 0-14.374 14-28.748 14S963.134 0 948.76 0s-14.373 14-28.748 14-14.375-14-28.75-14-14.373 14-28.748 14-14.375-14-28.75-14c-14.37 0-14.37 14-28.743 14-14.374 0-14.374-14-28.75-14-14.37 0-14.37 14-28.743 14-14.374 0-14.374-14-28.747-14s-14.373 14-28.747 14C675.66 14 675.66 0 661.287 0c-14.374 0-14.374 14-28.748 14-14.376 0-14.376-14-28.752-14-14.374 0-14.374 14-28.748 14S560.666 0 546.292 0s-14.374 14-28.748 14S503.17 0 488.796 0c-14.375 0-14.375 14-28.75 14-14.376 0-14.376-14-28.753-14-14.375 0-14.375 14-28.75 14s-14.375-14-28.75-14c-14.376 0-14.376 14-28.75 14S330.665 0 316.29 0s-14.374 14-28.75 14-14.376-14-28.753-14c-14.374 0-14.374 14-28.747 14-14.375 0-14.375-14-28.75-14s-14.375 14-28.75 14C158.16 14 158.16 0 143.784 0c-14.377 0-14.377 14-28.755 14-14.378 0-14.378-14-28.756-14S71.896 14 57.518 14c-14.38 0-14.38-14-28.76-14S14.38 14 0 14v20h1150V14c-14.374 0-14.374-14-28.748-14z"/></svg>