<svg xmlns="http://www.w3.org/2000/svg" width="14.962" height="27.718" viewBox="56.519 49.996 14.962 27.718"><path fill="#231F20" d="M68.18 55.188c1.027.03 1.994 0 2.682-.3.39-.818.556-1.854.62-2.99-.19-.014-.063-.336-.208-.398-.03-.202-.278-.195-.31-.398-.276-.165-.456-.422-.722-.598-.727-.162-1.44-.335-2.164-.5-.85.045-1.895-.102-2.58.1-2.62-.04-3.997 1.12-5.26 2.393-.022.078-.002.197-.104.2-.574 1.586-.125 3.62-.204 5.58.1.436.107.958.204 1.395-.998.296-2.212.387-3.402.5-.317.323-.178 1.088-.206 1.692.085.583.278 1.06.413 1.595.21.192.595.395.824.497.065.03.07.082.103.1.506.268 1.45.008 2.268.1-.136 1.978.256 3.915 0 5.68.007.327.295.382.208.798 0 .963-.067 1.99.208 2.69-.286.455-.496.982-.414 1.794.122.015.114.156.105.298-.074.47.644.175.516.698.162.456-.428.184-.413.498v.896c.53.285 1.462.182 2.268.2.91-.42 2.19-.48 2.786-1.197.46.235.916-.014 1.238-.2-.018-.314.273-.332.205-.697-.005-.328-.174-.496-.104-.896v-2.89c-.206-2.293-.048-4.938-.31-7.176.89-.105 1.918-.075 2.58-.398.356-.45.376-1.23.515-1.895.178-.225.222-.582.207-.995.19-.213.068-.73.104-1.096-.14-.596-.167-1.3-.824-1.39-.884-.236-2.043.594-2.99.298.048-1.134-.294-2.342 0-3.388.745-.18 1.445-.4 2.165-.602zm-3.817 4.783c.117.255.254.487.414.7.08.02.203.002.205.1 1.192.056 2.2-.07 3.096-.3 0 1-.27 1.734-.518 2.493-.662.045-1.467.3-1.958.198-.276.166-.372.507-.62.7-.05.44.142.494 0 .796-.2.137-.055.61-.205.796v1.496c.085.28-.146.258-.104.497v3.488c-.085.28.146.258.104.498v2.99c.063.27-.132.79.103.896-.07.364-.412-.02-.824.1-.528.122-.926.37-1.548.4.117-.353.32-.622.31-1.097.05-.382-.364-.313-.515-.49.193-.645.562-1.118.722-1.794.197-.515.714-1.298.31-1.794-.522-.105-.52.293-.826.398-.023.077-.003.196-.104.2-.023.076-.003.195-.103.198.01.12-.15.062 0 0 .022-.078.002-.197.103-.2.023-.076.002-.196.103-.198v-.3c.367-.574.67-1.213.825-1.992.19-.28.283-.656.412-.997.156-.26.34-.868.104-1.194-.516.033-.795.295-.93.697-.32-.19.162-.434.105-.697.138-.23.17-.566.31-.797.2-.414.563-1.305 0-1.597-.44-.023-.613.207-.724.498-.213.192-.43.384-.515.7-.373-.07-.143-.728-.206-1.098-.068-.52.12-.9 0-1.195-.56-.8-2.027-.105-3.198-.3-.108-.306-.222-.983-.104-1.194 1.045-.088 2.48.2 3.197-.2.024-.077.003-.196.104-.198.093-.723-.272-1-.516-1.396.232-.807.04-2.02.104-2.99.233-.14.328-.414.515-.598.112-.955.673-1.476.722-2.49-.273 0-.607-.055-.62.2-.3-.115-.38.478-.514.198-.11-.54.247-.626.31-.997.6-.418 1.212-.82 1.856-1.195 1.74-.244 4.648-.45 6.086.198.05.616-.287.854-.207 1.496H68.08c-1.093.24-1.988.672-2.992.997-.24.065-.276.33-.516.397-.036.396-.225.646-.31.996-.08 1.43.132 2.59.1 3.978z"/></svg>