<svg xmlns="http://www.w3.org/2000/svg" width="24.829" height="24.333" viewBox="0 0 24.829 24.333"><path d="M17.32 24.333h-1.114c-4.904-.58-8.497-2.857-11.11-5.772C2.473 15.638.402 11.876 0 6.818V5.46c.09-.922.544-1.55 1.067-2.087.65-.666 1.63-1.522 2.522-1.553.658-.022 1.78.45 2.23 1.066.39.53.596 1.59.776 2.378.185.797.6 1.95.485 2.717-.175 1.197-1.763 1.704-2.23 2.573 1.55 3.72 4.09 6.456 7.472 8.345.847-.465 1.595-1.864 2.767-1.892.427-.012.97.21 1.405.34.477.143.89.326 1.31.484.706.266 1.958.62 2.38 1.213.432.61.68 1.608.58 2.23-.194 1.235-2.227 2.604-3.444 3.06zM12.53 1.528c5.948 0 10.77 4.822 10.77 10.77h1.53C24.83 5.51 19.322 0 12.53 0v1.528z"/><path d="M12.53 9.327v1.552c.784 0 1.42.635 1.42 1.42h1.553c0-1.643-1.33-2.973-2.974-2.973zM12.53 6.246c3.344 0 6.055 2.71 6.055 6.054h1.588c0-4.22-3.422-7.64-7.644-7.64v1.586z"/></svg>