<svg xmlns="http://www.w3.org/2000/svg" width="66" height="100.801" viewBox="0 0 66 100.801"><path fill="#FFF" d="M56.334 9.228C43.442-3.077 22.56-3.077 9.667 9.228c-12.89 12.297-12.89 32.248 0 44.542 0 0 23.318 21.832 23.318 47.03 0-25.198 23.343-47.03 23.343-47.03 12.897-12.294 12.897-32.245.006-44.542z"/><path fill="#6BC6B3" d="M47.036 45.522c-.636-3.277.13-6.947.027-10.284-.115-3.755-.713-7.485-.665-11.246.04-3.044.545-6.173-.503-9.09.065-.333.134-.663.195-.996.27-1.463-4.577-.69-5.338.65-.48.392-.726.86-.523 1.338.05.12.096.243.14.365-.916 4.484-2.196 8.826-3.667 13.173-.563 1.663-1.244 3.288-1.817 4.946-.814-1.546-1.638-3.072-2.3-4.73-1.922-4.804-3.656-9.66-6-14.284.266-2.14-4.484-1.916-5.42.044-1.133 2.37-.987 4.763-.614 7.3.42 2.857.494 5.667.528 8.553.066 5.566.502 11.12.584 16.684-.496.552-.646 1.233-.127 1.924.226.303.505.536.8.77 1.264 1.013 4.898.15 4.892-1.78-.02-5.77-.438-11.53-.59-17.298-.015-.565-.025-1.13-.034-1.694l.24.607c.896 2.245 1.833 4.427 3.06 6.514 1.213 2.067 1.823 4.288 2.522 6.546-.265.303-.423.647-.326.99-.055.252.1.41.352.505.894.767 2.578.384 3.513-.01.4-.167.785-.363 1.155-.592.483-.297 1.236-.95 1.02-1.622l-.12-.39c.657-1.777.992-3.626 1.352-5.5.38-2 1.095-3.893 1.812-5.787.073.866.15 1.73.22 2.596.284 3.575.045 7.1.01 10.674-.013 1.186.074 2.287.306 3.445.096.48.514 2.53.394 2.642-.855.79-.606 1.76.54 2.01 1.278.282 2.91-.147 3.876-1.038 1.675-1.55.882-3.98.504-5.938z"/></svg>