<svg xmlns="http://www.w3.org/2000/svg" width="60" height="59.62" viewBox="226.001 226.19 60 59.62"><path fill="#231F20" d="M226 269.87l27.44 15.935V262.46L226 246.52v23.35zm51.347-31.243v2.453c0 1.817-3.458 3.29-7.73 3.29-4.266 0-7.727-1.473-7.727-3.29v-4.06h.024c.26 1.715 3.604 3.074 7.702 3.074 4.272 0 7.73-1.474 7.73-3.285 0-1.82-3.458-3.29-7.73-3.29-.34 0-.675.01-1.002.03l-4.975-2.888v3.086c0 1.817-3.455 3.29-7.724 3.29-2.683 0-5.045-.583-6.433-1.467-.196-.202-.44-.4-.732-.585-.362-.38-.564-.797-.564-1.236v-2.987l-4.807 2.792c-.348-.017-.697-.033-1.055-.033-4.267 0-7.727 1.47-7.727 3.29 0 1.81 3.46 3.284 7.727 3.284 4.1 0 7.446-1.358 7.705-3.073h.022v4.06c0 1.816-3.455 3.29-7.727 3.29-4.267 0-7.727-1.474-7.727-3.29v-2.42l-5.952 3.45 27.53 15.987 27.352-15.882-6.18-3.59zm-13.644 10.166c0 1.817-3.46 3.287-7.727 3.287-4.27 0-7.73-1.47-7.73-3.287v-4.06h.025c.26 1.716 3.604 3.077 7.706 3.077 4.1 0 7.443-1.36 7.705-3.076h.022v4.06zm-5.145 13.873v23.144L286 269.87v-23.143l-27.442 15.94zm-2.64-29.904c4.268 0 7.722-1.47 7.722-3.286 0-1.814-3.454-3.287-7.723-3.287-4.27 0-7.73 1.47-7.73 3.286s3.46 3.286 7.73 3.286"/></svg>