<?xml version="1.0" encoding="UTF-8"?><!DOCTYPE svg PUBLIC "-//W3C//DTD SVG 1.1//EN" "http://www.w3.org/Graphics/SVG/1.1/DTD/svg11.dtd"><svg xmlns="http://www.w3.org/2000/svg"><symbol id="icon-cart" viewBox="264.205 370.961 20.294 18.849"><path d="M283.75 378.19h-3.15l-3.408-6.814c-.185-.37-.634-.52-1.006-.335-.37.187-.52.637-.335 1.007l3.072 6.143h-9.138l3.072-6.143c.185-.37.035-.82-.335-1.006-.37-.184-.82-.034-1.005.336l-3.407 6.814h-3.15c-.415 0-.75.336-.75.75s.335.75.75.75h.156l.855 2.99c-.188.138-.317.348-.317.596 0 .396.31.71.697.74l1.656 5.794h12.697l1.656-5.795c.387-.028.697-.344.697-.74 0-.248-.13-.458-.316-.595l.855-2.99h.157c.414 0 .75-.337.75-.75s-.338-.75-.752-.75zm-4.18 10.12h-10.434l-1.224-4.283h12.88l-1.223 4.284zm1.652-5.784h-13.74l-.81-2.836h15.36l-.81 2.836z"/></symbol><symbol id="icon-fb" viewBox="56.519 49.996 14.962 27.718"><path d="M68.18 55.188c1.027.03 1.994 0 2.682-.3.39-.818.556-1.854.62-2.99-.19-.014-.063-.336-.208-.398-.03-.202-.278-.195-.31-.398-.276-.165-.456-.422-.722-.598-.727-.162-1.44-.335-2.164-.5-.85.045-1.895-.102-2.58.1-2.62-.04-3.997 1.12-5.26 2.393-.022.078-.002.197-.104.2-.574 1.586-.125 3.62-.204 5.58.1.436.107.958.204 1.395-.998.296-2.212.387-3.402.5-.317.323-.178 1.088-.206 1.692.085.583.278 1.06.413 1.595.21.192.595.395.824.497.065.03.07.082.103.1.506.268 1.45.008 2.268.1-.136 1.978.256 3.915 0 5.68.007.327.295.382.208.798 0 .963-.067 1.99.208 2.69-.286.455-.496.982-.414 1.794.122.015.114.156.105.298-.074.47.644.175.516.698.162.456-.428.184-.413.498v.896c.53.285 1.462.182 2.268.2.91-.42 2.19-.48 2.786-1.197.46.235.916-.014 1.238-.2-.018-.314.273-.332.205-.697-.005-.328-.174-.496-.104-.896v-2.89c-.206-2.293-.048-4.938-.31-7.176.89-.105 1.918-.075 2.58-.398.356-.45.376-1.23.515-1.895.178-.225.222-.582.207-.995.19-.213.068-.73.104-1.096-.14-.596-.167-1.3-.824-1.39-.884-.236-2.043.594-2.99.298.048-1.134-.294-2.342 0-3.388.745-.18 1.445-.4 2.165-.602zm-3.817 4.783c.117.255.254.487.414.7.08.02.203.002.205.1 1.192.056 2.2-.07 3.096-.3 0 1-.27 1.734-.518 2.493-.662.045-1.467.3-1.958.198-.276.166-.372.507-.62.7-.05.44.142.494 0 .796-.2.137-.055.61-.205.796v1.496c.085.28-.146.258-.104.497v3.488c-.085.28.146.258.104.498v2.99c.063.27-.132.79.103.896-.07.364-.412-.02-.824.1-.528.122-.926.37-1.548.4.117-.353.32-.622.31-1.097.05-.382-.364-.313-.515-.49.193-.645.562-1.118.722-1.794.197-.515.714-1.298.31-1.794-.522-.105-.52.293-.826.398-.023.077-.003.196-.104.2-.023.076-.003.195-.103.198.01.12-.15.062 0 0 .022-.078.002-.197.103-.2.023-.076.002-.196.103-.198v-.3c.367-.574.67-1.213.825-1.992.19-.28.283-.656.412-.997.156-.26.34-.868.104-1.194-.516.033-.795.295-.93.697-.32-.19.162-.434.105-.697.138-.23.17-.566.31-.797.2-.414.563-1.305 0-1.597-.44-.023-.613.207-.724.498-.213.192-.43.384-.515.7-.373-.07-.143-.728-.206-1.098-.068-.52.12-.9 0-1.195-.56-.8-2.027-.105-3.198-.3-.108-.306-.222-.983-.104-1.194 1.045-.088 2.48.2 3.197-.2.024-.077.003-.196.104-.198.093-.723-.272-1-.516-1.396.232-.807.04-2.02.104-2.99.233-.14.328-.414.515-.598.112-.955.673-1.476.722-2.49-.273 0-.607-.055-.62.2-.3-.115-.38.478-.514.198-.11-.54.247-.626.31-.997.6-.418 1.212-.82 1.856-1.195 1.74-.244 4.648-.45 6.086.198.05.616-.287.854-.207 1.496H68.08c-1.093.24-1.988.672-2.992.997-.24.065-.276.33-.516.397-.036.396-.225.646-.31.996-.08 1.43.132 2.59.1 3.978z"/></symbol><symbol id="icon-feature-ball" viewBox="0 0 34.373 34.373"><path d="M.286 14.07c-.382 2.072-.384 4.21.008 6.3l4.12-3.21-4.128-3.09zM24.403 1.585C19.62-.623 13.96-.56 9.15 1.992l7.512 5.625 7.74-6.032zM33.9 13.175l-4.81 3.748 4.936 3.695c.496-2.445.463-4.988-.125-7.443zM9.21 32.414c4.843 2.534 10.723 2.65 15.73.113l-8.097-6.062-7.634 5.95zM7.914 14.433L1.68 9.767c-.32.67-.594 1.356-.824 2.056l5.308 3.974 1.75-1.364zM18.593 25.102l8.336 6.242c.276-.19.55-.39.82-.6.317-.25.624-.506.92-.772l-8.327-6.234-1.75 1.364zM11.413 11.707l-7.41-5.55c-.463.552-.886 1.128-1.27 1.724l6.93 5.19 1.75-1.363zM22.093 22.375l8.092 6.06c.47-.545.904-1.113 1.297-1.702l-7.64-5.72-1.75 1.362zM14.913 8.98L7.196 3.203c-.193.138-.384.28-.573.426-.396.308-.774.63-1.136.967l7.676 5.747 1.75-1.364zM25.592 19.65l6.972 5.22c.33-.662.615-1.34.855-2.033l-6.078-4.55-1.75 1.362zM26.448 2.706L.88 22.626c.233.698.513 1.386.84 2.06L28.24 4.02c-.573-.48-1.172-.92-1.792-1.316zM30.743 6.624c-.3-.386-.614-.754-.94-1.106L2.787 26.568c.262.4.542.796.843 1.182.14.183.287.36.435.534l27.09-21.108c-.134-.186-.27-.37-.412-.552zM32.298 9L5.552 29.837c.544.5 1.114.962 1.708 1.382l25.962-20.228c-.263-.678-.57-1.344-.924-1.993z"/></symbol><symbol id="icon-feature-flower" viewBox="8.014 4.35 31.972 37.301"><path d="M24 41.65c8.827 0 15.986-7.16 15.986-15.986C31.158 25.664 24 32.822 24 41.65zM12.64 20.78c0 2.45 1.99 4.44 4.44 4.44.933 0 1.804-.293 2.514-.78l-.036.336c0 2.45 1.99 4.44 4.44 4.44s4.44-1.99 4.44-4.44l-.035-.337c.72.496 1.582.78 2.514.78 2.45 0 4.44-1.99 4.44-4.44 0-1.768-1.038-3.286-2.54-3.997 1.492-.71 2.54-2.23 2.54-3.997 0-2.45-1.99-4.44-4.44-4.44-.932 0-1.803.293-2.514.78l.037-.336c0-2.45-1.99-4.44-4.44-4.44s-4.44 1.99-4.44 4.44l.035.337c-.72-.497-1.58-.78-2.513-.78-2.45 0-4.44 1.99-4.44 4.44 0 1.767 1.04 3.285 2.54 3.996-1.502.71-2.54 2.23-2.54 3.997zM24 12.343c2.45 0 4.44 1.99 4.44 4.44s-1.99 4.44-4.44 4.44-4.44-1.99-4.44-4.44 1.99-4.44 4.44-4.44zM8.014 25.663c0 8.828 7.158 15.987 15.986 15.987 0-8.828-7.158-15.986-15.986-15.986z"/></symbol><symbol id="icon-feature-gift" viewBox="239.665 239.757 32.666 32.486"><path d="M242.56 272.243h12.504v-13.91H242.56v13.91zm28.182-23.62h-7.335c.52-.267.984-.55 1.396-.845 1.588-1.133 2.424-2.57 2.42-4 .002-1.168-.556-2.2-1.36-2.9-.804-.704-1.868-1.12-3.015-1.12-1.22-.002-2.352.42-3.32 1.068-1.46.98-2.606 2.45-3.424 4.067-.04.08-.078.157-.115.236-.3-.624-.648-1.227-1.042-1.793-.69-.985-1.523-1.86-2.497-2.51-.97-.647-2.102-1.07-3.32-1.07-1.214.004-2.324.514-3.156 1.295-.828.783-1.41 1.885-1.412 3.135-.002.73.21 1.494.65 2.188.55.872 1.423 1.628 2.632 2.248h-6.588c-.878 0-1.59.712-1.59 1.59v5.897h15.395v-7.488h1.874v7.488h15.396v-5.897c.003-.88-.71-1.59-1.588-1.59m-22.362-2.34c-.622-.39-1-.784-1.22-1.134-.22-.355-.294-.663-.296-.964-.004-.504.248-1.042.69-1.46.438-.416 1.03-.668 1.563-.668h.013c.685 0 1.366.23 2.046.683 1.018.672 1.975 1.85 2.645 3.188.343.676.61 1.39.79 2.087-3.082-.32-5.078-1.002-6.23-1.73m10.537-1.628c.557-.797 1.21-1.466 1.887-1.916.68-.45 1.362-.682 2.047-.682h.007c.574 0 1.117.22 1.494.55.378.336.572.74.574 1.17-.004.513-.272 1.26-1.467 2.133-1.138.826-3.1 1.674-6.127 2.266.29-1.202.847-2.472 1.587-3.52m-1.98 27.587h12.506v-13.91h-12.506v13.91z"/></symbol><symbol id="icon-feature-heart" viewBox="47.475 50.071 33.05 27.857"><path d="M80.525 58.808c0-4.825-3.912-8.736-8.736-8.736-3.406 0-6.35 1.95-7.79 4.793-1.44-2.842-4.384-4.793-7.79-4.793-4.824 0-8.735 3.91-8.735 8.736 0 9.127 14.657 19.12 16.525 19.12 1.87 0 16.525-9.95 16.525-19.12z"/></symbol><symbol id="icon-feature-money" viewBox="46.212 56.834 46.575 27.332"><path d="M88.882 56.834H50.116c-2.156 0-3.904 1.75-3.904 3.905v19.52c0 2.156 1.748 3.905 3.904 3.905h38.766c2.156 0 3.905-1.75 3.905-3.905V60.74c0-2.157-1.75-3.906-3.905-3.906zm-39.647 24.95V59.55h40.202v22.234H49.235z"/><path d="M53.14 77.88h32.395V63.456H53.14V77.88zM69.5 65.354c2.936 0 5.315 2.38 5.315 5.314 0 2.936-2.38 5.314-5.315 5.314s-5.314-2.38-5.314-5.314c0-2.935 2.378-5.314 5.314-5.314z"/></symbol><symbol id="icon-feature-rocket" viewBox="612.532 500.386 54.156 23.183"><path d="M652.844 506.098c-3.647-.97-7.84-1.667-12.36-1.666-2.89 0-5.456.243-7.71.623l-6.783-4.668-13.455.005 5.81 6.184h8.448c-4.58 1.598-6.76 3.515-6.76 3.515l.003 3.778s2.313 1.912 6.93 3.518l-8.622-.005-5.81 6.19h13.454l6.816-4.69c2.26.397 4.822.646 7.68.647 4.523 0 8.713-.697 12.36-1.667-1.175-1.775-1.914-3.743-1.917-5.877.003-2.14.738-4.112 1.917-5.885zM656.267 507.132c-1.284 1.605-1.97 3.25-1.965 4.84-.007 1.597.677 3.238 1.968 4.847 6.4-2.163 10.42-4.842 10.42-4.842s-4.02-2.68-10.423-4.846z"/></symbol><symbol id="icon-flag" viewBox="-11.34 -28.346 46.68 81.691"><path fill="#63D1BB" d="M-3.56-24.455v38.9l38.9-19.45-38.9-19.45zm-7.78 77.8v-81.69h3.805v81.69h-3.805z"/><g><path fill="#231F20" d="M-11.34-28.346h3.805v81.69h-3.805z"/></g></symbol><symbol id="icon-insta" viewBox="53.115 53.19 21.769 21.334"><path d="M74.88 65.336c-.012-2.395-.343-4.788-.302-7.135-.023-.787-.086-1.534-.152-2.277-.105-.3-.11-.7-.152-1.062-.26-.17-.222-.64-.456-.834-.423-.233-1.2-.114-1.744-.22-.657-.026-1.254-.115-1.9-.153-1.935-.1-3.972-.076-5.995-.076-2.002 0-3.955-.145-5.696-.38h-2.202c-.097.005-.105.1-.227.077-.6.034-1.077.188-1.595.303-.21.12-.42.235-.683.304-.136.193-.513.146-.607.38-.186.212.185.45 0 .607v.91c.173.13.027.58.075.836v.987c-.017 1.28.134 2.397.076 3.72.468 2.762.375 6.537.077 9.413.155.58.363 1.105.455 1.746.256.478.335 1.132.683 1.52.502.205 1.233.185 1.898.228.383.098.667.293 1.14.3 2.843-.21 5.496-.154 8.427-.23 2.704.24 5.802.19 8.275-.227.195-.133.128-.528.228-.76-.056-.384.207-.448.228-.758.132-2.395.165-4.79.15-7.216zM61.9 59.11c.756-.152 1.48-.34 2.428-.303.71.076 1.287.283 1.897.456.116.184-.243.547.153.684v.076c.06.017.15.002.15.076.446.034.795.166 1.064.378.45.055.536.476 1.138.3-.09.213-.084.524-.075.835.324 1.183.475 2.81.303 4.252-.164.163-.215.442-.303.683-.31.322-.48.785-.836 1.062-.096.236-.25.408-.455.533-.116.213-.206.452-.457.53-.298.163-.577.01-.834-.076-.446.162-.904.312-1.215.607-.817-.096-1.65-.175-2.43-.304-.243-.14-.488-.273-.836-.305-.227-.204-.496-.364-.836-.455-.1-.127-.337-.118-.455-.23-.198-.028-.23-.226-.456-.228-.118-.412-.443-.618-.532-1.062-.226-.33-.308-.805-.455-1.215-.043-1.434.09-2.692.38-3.796.345-.592.778-1.095 1.137-1.67.25.02.365-.09.38-.305.306.053.434-.072.684-.075.258.008.27-.31.46-.45zm-1.67-2.732c-.118-.263-.067-.69-.076-1.062-.007-.285.278-.28.304-.532-.003-.074-.093-.06-.152-.076.126-.146.7-.097.834 0 .132.537-.354.455-.53.684.01.167.32.032.455.076.03.854-.06 1.496 0 2.202h-.456c-.008.234.228.226.455.228-.06.286.092.363.075.607-.226.153-.716.042-1.062.075-.103-.594.235-1.375.15-2.202zm-.684-1.594c.088-.013.134.016.15.076.18.253.01.683-.075.91-.172-.178-.025-.68-.074-.986zm.152 1.822c-.132-.07-.168-.237-.152-.456.132.07.167.238.152.456zm0 1.367c-.058.14-.082-.045-.076-.152.058-.138.08.046.076.153zm-.152.228c.175-.023.084.22.228.228-.01.193-.283.18-.38.077.04-.112.113-.193.152-.304zm-2.354-1.215c.006-.108.013-.214-.076-.228-.073-.733.13-1.415 0-1.973.25-.155.77-.042 1.14-.077v1.14c-.09.063-.204.1-.38.076-.054.28.324.13.38.304.007.853-.057 1.777.15 2.43-.564-.06-.905.106-1.44.075.096-.612-.02-1.435.53-1.594-.012-.14-.257-.047-.304-.153zm-.53 0c-.205.02-.218-.534-.078-.607.328.006.25.5.077.607zm-.153.988c.076-.312.033-.304.074-.683.228.013.26.77-.075.683zm.227-2.05c-.263.054-.273-.266-.153-.38.263-.053.272.267.153.38zm0-1.14c.033.16-.052.202-.076.305-.175.023-.083-.22-.228-.23.025-.1.19-.06.305-.074zm-.228 3.722c.147-.03.11.345-.077.227.04-.062.08-.124.076-.227zm-.685-3.72c.03.258-.438.32-.38 0h.38zm-.987.075c-.034.22-.326.18-.38.38-.213-.17.085-.47.38-.38zm-.455.76c.226-.206.45-.41.684-.608-.02-.123.07-.13.076-.228h.23c.1.38-.262.296-.306.53.02.123-.072.132-.075.228.02.335.12.588.075.988-.27.008-.276.28-.607.227.022-.428-.135-.674-.077-1.138zm.076 3.264V57.29c.194-.185.395-.364.606-.532.295.49.18 1.392.455 1.897-.274.157-.75.11-1.06.23zm18.22 11.084c-.11.954-.158 1.968-.38 2.81-2.89.122-6.02.004-8.882.152-.2.045-.273-.03-.23-.23-.252 0-.257.248-.53.23.2-.336.438-.898.15-1.29-.796.012-.796.82-1.137 1.29-.685-.053-1.136.127-1.822.075.18-.705.75-1.02.91-1.745-.394-.55-.988.138-1.213.455-.204.48-.557.81-.76 1.29H57.8c.238-.47.49-.926.76-1.366.17-.513.624-.742.682-1.368-.157-.28-.42-.03-.683 0-.124.182-.273.335-.38.53-.233.377-.502.715-.685 1.14-.18.21-.335.004-.53.228-.39.27-.58.736-.988.987-.174-.06.04-.356.153-.38.045-.18-.096-.55.075-.607.063-.366.212-.647.38-.91.118-.742.52-1.2.683-1.898-.56.1-.674.643-.988.987-.212.444-.542.77-.683 1.29-.174-.13-.028-.58-.076-.836.123-.586.3-1.12.38-1.746.134-.22.174-.535.23-.834.167-.21.045-.61-.078-.76-.226.026-.374.132-.455.303-.192-.032-.193.506-.304.304-.045-2.586-.45-4.81-.456-7.437.026-.33-.183-.424-.228-.685 1.628.028 3.12.09 4.782.23-.09.138-.2.256-.304.378-.144.07-.226.173-.378.304-.604 1.653-.975 3.984-.607 6.15.23.58.59 1.03.986 1.44.906.486 1.634 1.15 2.505 1.672 1.7.36 3.84.37 5.54 0 .237-.12.485-.226.686-.38 1.365-1.242 2.754-2.46 2.962-4.86v-1.366c-.197-1.598-.688-2.905-1.747-3.644.33-.22 1.1.043 1.67.076.223.013.447.014.684 0 .407-.024.927-.055 1.442 0 .144.187.113.544.228.76-.062 1.684-.192 3.3-.152 5.087.103.454.127.986.23 1.44-.092.974-.238 1.89-.458 2.733zm.38-11.16c-.64-.12-1.233-.284-1.898-.38.072-.332.8-.01.987-.227.384-.222.294-.92.303-1.51.032-.347.114-.643.076-1.062-.402-.95-1.784-.42-2.887-.455-.225.718-.47 1.8-.304 2.657.168.49 1.023.292 1.518.456-.14.332-.688.057-.987.076-.295-.083-.706-.052-.985-.15-2.285.077-4.284.003-6.53.15.118-1.248.064-2.465-.075-3.645h3.112c-.344.364-.912.507-1.29.835-.44.244-.86.505-1.14.91.25.135.536-.244.76-.378.355-.074.48-.38.835-.455.423-.44 1.096-.626 1.67-.913.378-.022.697.013.987.077 1.283.007 2.456.126 3.796.076.614.145 1.45.07 1.974.304.107.298.23.58.305.91.007.987-.15 1.817-.23 2.724zm-5.846-3.72c.11-.047-.01-.092 0 0zm0 0c-.53.154-1.02.348-1.367.682.484-.198 1.06-.306 1.367-.682zm1.062.607c.11-.047-.007-.09 0 0zm-1.746.91c.727-.157 1.18-.59 1.746-.91-.437.02-.592.32-.987.38-.216.216-.6.26-.76.53zm-.683-.834c-.11.048.007.093 0 0zm-.683.608c.11-.046-.008-.092 0 0zm-.075.076c.062.014.07-.03.074-.076-.064-.014-.072.03-.075.076zm-.078.076c.064.014.072-.03.077-.076-.068-.013-.073.03-.078.076zm-.834.608c.346-.134.613-.348.834-.607-.348.134-.615.348-.834.608zm2.276.987c.533-.05.75-.416 1.215-.53.283-.3.783-.382.986-.76-.56.022-.766.398-1.216.53-.284.297-.75.413-.986.76zm-2.276-.987c-.317-.074-.016.227 0 0zm-.533.38c.02.02.115-.038.076-.078-.02-.02-.115.038-.075.077zm2.81.607c-.11.047.006.09 0 0zm-1.14 1.82c-.224-.23-.677-.232-.987-.378-.697-.038-1.223.093-1.746.23-.304.15-.607.303-.91.453-.266.166-.444.417-.76.532-.205.225-.352.51-.684.607-.004.222-.173.28-.304.378-.09.115-.094.312-.227.38-.007.12.036.29-.076.304.11 1.512.292 2.948.684 4.177.287.622.975.845 1.442 1.29.59.296 1.328.443 2.126.53.277-.052.553-.105.91-.076 1.21-.21 2.1-.736 2.81-1.44.1-.282.253-.51.456-.685-.254-.672.293-1.1.455-1.59.002-1.345-.2-2.48-.607-3.416-.256-.58-.92-.75-1.366-1.14-.06-.017-.15-.002-.15-.076-.27-.136-.734-.24-1.066-.082zm-3.416 4.328c-.114-.063-.11-.244-.153-.38.256-.077.118.238.152.38zm.075.305c.04-.117.08-.006.076.075-.04.118-.078.005-.075-.075zm.456-2.05c.016-.087.076-.043.076 0-.014.086-.075.042-.075 0zM64.1 60.4c-.202.258.042.576.078.836-.305-.04-.574-.887-.077-.836zm.38 3.948c-.04-.038.055-.097.076-.076.04.038-.054.097-.076.076zm.76 2.884c.033-.11.065.008.15 0-.017.097-.15.077-.15 0zm2.2-2.58c-.233-.058-.145.207-.38.15.07-.158.12-.337.23-.454.134.02.172.13.15.303zm-1.137-3.797c.21.12.44.217.606.38.084.22.242.364.38.53.057.778.178 1.492.15 2.354-.257.1-.438.272-.683.382-.78-.006-1.358-.212-1.897-.456-.17-.26-.355-.505-.532-.76v-1.06c.17-.186.32-.392.456-.608.228-.127.508-.2.454-.607-.038-.06-.078-.123-.075-.228.158.045.245.16.38.23.322.016.41-.2.76-.155z"/></symbol><symbol id="icon-interior" viewBox="-259.404 -19.675 40.219 62.411"><path d="M-244.227 18.283c-.286.966-.245 2.19.027 3.64.494 2.634 1.687 6.04 2.358 9.67h5.062c.696-3.642 1.95-7.05 2.47-9.684.288-1.446.33-2.66.042-3.618-.275-.9-.89-1.618-2.02-2.303h-5.998c-1.075.678-1.674 1.39-1.94 2.293zM-232.395 38.278h-13.8c-1.292 0-2.298.976-2.298 2.23v2.228h18.398v-2.23c0-1.252-1.007-2.228-2.3-2.228zM-225.262-17.446h-11.732c0-1.244-1.015-2.23-2.3-2.23-1.283 0-2.3.986-2.3 2.23h-11.737l-6.074 25.517c.794-.46 1.59-.99 2.632-.99 1.36 0 2.243.817 2.924 1.374.682.557 1.162.85 1.447.85.29 0 .768-.288 1.45-.837.68-.548 1.564-1.358 2.915-1.358 1.35 0 2.237.805 2.92 1.353.683.55 1.16.84 1.45.84.146 0 .338-.073.58-.214.242-.142.53-.354.872-.627.512-.41 1.14-.967 1.99-1.218.284-.085.593-.136.93-.136 1.347 0 2.238.804 2.92 1.353.683.548 1.16.84 1.45.84.288-.002.767-.296 1.446-.85.684-.554 1.57-1.367 2.925-1.367 1.356 0 2.24.817 2.92 1.37.34.277.63.49.87.632.24.143.432.214.576.214.288 0 .762-.293 1.442-.854.68-.56 1.567-1.384 2.93-1.384 1.043 0 1.838.533 2.63.997l-6.078-25.506zM-235.88 33.82h-6.865c-.657 0-1.15.48-1.15 1.115s.493 1.113 1.15 1.113h6.9c.655 0 1.15-.48 1.15-1.113 0-.636-.495-1.115-1.15-1.115h-.036zM-239.295 9.336c-.146 0-.338.074-.58.213-.157.093-.37.26-.57.41v3.73h2.3V9.96c-.506-.38-.91-.624-1.15-.624z"/></symbol><symbol id="icon-left-arrow" viewBox="0 0 50 26.003"><path d="M50 11.002H7.66l8.173-8.174L13.005 0 0 12.998.003 13 0 13.006l13.005 12.998 2.828-2.828-8.172-8.173H50"/></symbol><symbol id="icon-mail" viewBox="0 0 32 32"><path d="M28 5H4C1.79 5 0 6.792 0 9v13c0 2.21 1.79 4 4 4h24c2.21 0 4-1.79 4-4V9c0-2.208-1.79-4-4-4zM2 10.25l7 5.25-7 5.25v-10.5zM30 22c0 1.104-.898 2-2 2H4c-1.103 0-2-.896-2-2l7.832-5.875 4.368 3.277c.533.397 1.166.6 1.8.6.633 0 1.266-.2 1.8-.6l4.368-3.277L30 22zm0-1.25l-7-5.25 7-5.25v10.5zm-12.8-2.148c-.35.263-.764.4-1.2.4s-.85-.14-1.2-.4L10.665 15.5l-.833-.625L2 9c0-1.103.897-2 2-2h24c1.102 0 2 .897 2 2l-12.8 9.602z"/></symbol><symbol id="icon-map-pin" viewBox="0 0 66 100.801"><path fill="#FFF" d="M56.334 9.228C43.442-3.077 22.56-3.077 9.667 9.228c-12.89 12.297-12.89 32.248 0 44.542 0 0 23.318 21.832 23.318 47.03 0-25.198 23.343-47.03 23.343-47.03 12.897-12.294 12.897-32.245.006-44.542z"/><path fill="#6BC6B3" d="M47.036 45.522c-.636-3.277.13-6.947.027-10.284-.115-3.755-.713-7.485-.665-11.246.04-3.044.545-6.173-.503-9.09.065-.333.134-.663.195-.996.27-1.463-4.577-.69-5.338.65-.48.392-.726.86-.523 1.338.05.12.096.243.14.365-.916 4.484-2.196 8.826-3.667 13.173-.563 1.663-1.244 3.288-1.817 4.946-.814-1.546-1.638-3.072-2.3-4.73-1.922-4.804-3.656-9.66-6-14.284.266-2.14-4.484-1.916-5.42.044-1.133 2.37-.987 4.763-.614 7.3.42 2.857.494 5.667.528 8.553.066 5.566.502 11.12.584 16.684-.496.552-.646 1.233-.127 1.924.226.303.505.536.8.77 1.264 1.013 4.898.15 4.892-1.78-.02-5.77-.438-11.53-.59-17.298-.015-.565-.025-1.13-.034-1.694l.24.607c.896 2.245 1.833 4.427 3.06 6.514 1.213 2.067 1.823 4.288 2.522 6.546-.265.303-.423.647-.326.99-.055.252.1.41.352.505.894.767 2.578.384 3.513-.01.4-.167.785-.363 1.155-.592.483-.297 1.236-.95 1.02-1.622l-.12-.39c.657-1.777.992-3.626 1.352-5.5.38-2 1.095-3.893 1.812-5.787.073.866.15 1.73.22 2.596.284 3.575.045 7.1.01 10.674-.013 1.186.074 2.287.306 3.445.096.48.514 2.53.394 2.642-.855.79-.606 1.76.54 2.01 1.278.282 2.91-.147 3.876-1.038 1.675-1.55.882-3.98.504-5.938z"/></symbol><symbol id="icon-menu-close" viewBox="0 0 20.514 20.512"><path fill="#231F20" d="M20.513 1.414L19.1 0l-8.844 8.842L1.414 0 0 1.414l8.842 8.842L0 19.098l1.414 1.414 8.842-8.842 8.843 8.842 1.413-1.414-8.842-8.842"/></symbol><symbol id="icon-menu-open" viewBox="0 0 19.958 14"><path fill="#231F20" d="M0 0h19.958v2H0zM0 6h19.958v2H0zM0 12h19.958v2H0z"/></symbol><symbol id="icon-phone" viewBox="0 0 24.829 24.333"><path d="M17.32 24.333h-1.114c-4.904-.58-8.497-2.857-11.11-5.772C2.473 15.638.402 11.876 0 6.818V5.46c.09-.922.544-1.55 1.067-2.087.65-.666 1.63-1.522 2.522-1.553.658-.022 1.78.45 2.23 1.066.39.53.596 1.59.776 2.378.185.797.6 1.95.485 2.717-.175 1.197-1.763 1.704-2.23 2.573 1.55 3.72 4.09 6.456 7.472 8.345.847-.465 1.595-1.864 2.767-1.892.427-.012.97.21 1.405.34.477.143.89.326 1.31.484.706.266 1.958.62 2.38 1.213.432.61.68 1.608.58 2.23-.194 1.235-2.227 2.604-3.444 3.06zM12.53 1.528c5.948 0 10.77 4.822 10.77 10.77h1.53C24.83 5.51 19.322 0 12.53 0v1.528z"/><path d="M12.53 9.327v1.552c.784 0 1.42.635 1.42 1.42h1.553c0-1.643-1.33-2.973-2.974-2.973zM12.53 6.246c3.344 0 6.055 2.71 6.055 6.054h1.588c0-4.22-3.422-7.64-7.644-7.64v1.586z"/></symbol><symbol id="icon-play" viewBox="247.3 382.56 100.678 76.891"><path fill="#63D1BB" d="M344.255 400.708s-.92-7.008-3.785-10.078c-3.632-4.04-7.674-4.066-9.54-4.297-13.327-1.023-33.304-1.023-33.304-1.023h-.05s-19.98 0-33.305 1.023c-1.866.23-5.907.256-9.54 4.297-2.84 3.096-3.785 10.078-3.785 10.078s-.896 8.21-.896 16.422v7.7c0 8.21.946 16.42.946 16.42s.92 7.01 3.785 10.078c3.633 4.04 8.365 3.913 10.488 4.35 7.622.766 32.356 1.02 32.356 1.02s20.003-.024 33.33-1.047c1.866-.23 5.907-.255 9.54-4.297 2.84-3.07 3.785-10.078 3.785-10.078s.945-8.21.945-16.42v-7.7c-.023-8.236-.97-16.447-.97-16.447z"/><path fill="#FFF" d="M297.614 459.45h-.016c-1.015-.012-24.946-.267-32.604-1.038l-.14-.014-.137-.028c-.27-.056-.668-.107-1.126-.167-2.502-.328-7.158-.938-10.838-5.02-3.354-3.615-4.377-10.77-4.483-11.575l-.006-.043c-.04-.342-.965-8.463-.965-16.736v-7.7c0-8.266.874-16.378.91-16.72l.01-.07c.108-.803 1.155-7.93 4.474-11.558 3.996-4.44 8.53-4.9 10.712-5.12.192-.02.37-.038.53-.06l.125-.012c13.278-1.02 33.313-1.03 33.515-1.03h.05c.202 0 20.237.012 33.515 1.03l.126.013c.16.02.337.038.53.058 2.178.222 6.71.683 10.703 5.113 3.353 3.616 4.376 10.77 4.482 11.577l.005.043c.04.342.965 8.46.99 16.753v7.708c0 8.273-.926 16.395-.965 16.736l-.007.053c-.108.805-1.156 7.953-4.478 11.562-3.994 4.435-8.527 4.896-10.707 5.117-.193.02-.37.037-.53.057l-.126.012c-13.276 1.02-33.334 1.057-33.535 1.058h-.016zm-31.944-6.498c7.477.73 31.216.99 31.968.997.657-.002 20.135-.05 33.047-1.037l.58-.062c1.836-.185 4.608-.467 7.186-3.334l.027-.03c1.825-1.973 2.853-6.927 3.075-8.55.06-.515.926-8.36.926-16.08v-7.7c-.023-7.76-.896-15.627-.95-16.11-.32-2.38-1.435-6.788-3.067-8.538l-.034-.038c-2.577-2.868-5.35-3.15-7.186-3.336-.21-.02-.402-.04-.58-.062-13.066-.998-32.834-1.01-33.033-1.01h-.05c-.2 0-19.968.012-33.034 1.01-.177.02-.37.04-.58.062-1.835.187-4.607.468-7.186 3.336l-.02.02c-1.827 1.994-2.854 6.925-3.08 8.553-.063.59-.876 8.4-.876 16.09v7.698c0 7.75.872 15.6.927 16.084.32 2.38 1.433 6.79 3.066 8.54l.035.038c2.322 2.584 5.303 2.975 7.48 3.26.48.06.938.12 1.362.2z"/><g><path fill="#FFF" d="M285.733 403.138v35.708l29.747-17.854"/></g></symbol><symbol id="icon-right-arrow" viewBox="0 0 50 26.003"><path d="M0 11.002h42.34l-8.174-8.174L36.996 0 50 12.998l-.004.003.004.005-13.005 12.998-2.83-2.828 8.174-8.173H0"/></symbol><symbol id="icon-search" viewBox="-0.8 -0.8 17.6 17.6"><path d="M16.47 14.93l-3.415-3.415c.965-1.29 1.545-2.88 1.545-4.616 0-4.254-3.447-7.7-7.7-7.7S-.8 2.646-.8 6.9s3.446 7.7 7.7 7.7c1.733 0 3.325-.58 4.612-1.547l3.417 3.416c.202.2.417.33.77.33.607 0 1.1-.493 1.1-1.1 0-.24-.06-.5-.33-.77zM1.4 6.9c0-3.04 2.46-5.5 5.5-5.5s5.5 2.46 5.5 5.5-2.463 5.5-5.5 5.5-5.5-2.462-5.5-5.5z"/></symbol><symbol id="icon-tick" viewBox="0 0 32.666 22.742"><path d="M32.666 1.414L31.252 0 11.338 19.914 1.414 9.99 0 11.402l9.924 9.925 1.414 1.414 1.415-1.414"/></symbol><symbol id="icon-toy" viewBox="226.001 226.19 60 59.62"><path fill="#231F20" d="M226 269.87l27.44 15.935V262.46L226 246.52v23.35zm51.347-31.243v2.453c0 1.817-3.458 3.29-7.73 3.29-4.266 0-7.727-1.473-7.727-3.29v-4.06h.024c.26 1.715 3.604 3.074 7.702 3.074 4.272 0 7.73-1.474 7.73-3.285 0-1.82-3.458-3.29-7.73-3.29-.34 0-.675.01-1.002.03l-4.975-2.888v3.086c0 1.817-3.455 3.29-7.724 3.29-2.683 0-5.045-.583-6.433-1.467-.196-.202-.44-.4-.732-.585-.362-.38-.564-.797-.564-1.236v-2.987l-4.807 2.792c-.348-.017-.697-.033-1.055-.033-4.267 0-7.727 1.47-7.727 3.29 0 1.81 3.46 3.284 7.727 3.284 4.1 0 7.446-1.358 7.705-3.073h.022v4.06c0 1.816-3.455 3.29-7.727 3.29-4.267 0-7.727-1.474-7.727-3.29v-2.42l-5.952 3.45 27.53 15.987 27.352-15.882-6.18-3.59zm-13.644 10.166c0 1.817-3.46 3.287-7.727 3.287-4.27 0-7.73-1.47-7.73-3.287v-4.06h.025c.26 1.716 3.604 3.077 7.706 3.077 4.1 0 7.443-1.36 7.705-3.076h.022v4.06zm-5.145 13.873v23.144L286 269.87v-23.143l-27.442 15.94zm-2.64-29.904c4.268 0 7.722-1.47 7.722-3.286 0-1.814-3.454-3.287-7.723-3.287-4.27 0-7.73 1.47-7.73 3.286s3.46 3.286 7.73 3.286"/></symbol><symbol id="icon-twitter" viewBox="52.253 53.771 23.494 20.168"><path d="M75.706 57.855c-.227-.366-.91-.277-1.407-.37h-1.113c.142-.354.343-.647.52-.964.056-.437.254-.733.223-1.26.13-.166.176-.416.296-.592.104-.144.242-.477.074-.667-.05-.22-.295-.248-.593-.22-.088.035-.17.078-.222.147-.448.433-.778 1.014-1.26 1.408-.01.008-.063 0-.075 0-.087.005-.033.046-.075.074-.146.097-.257.15-.37.222-.283.176-.546.445-.89.52-.53-.212-1.156-.327-1.852-.37-1.157.1-2.303.214-3.038.74-.91.35-1.477 1.042-2.15 1.63-.048.32-.34.398-.37.74-.004.046-.01.09-.072.075.043.24-.05.345-.074.52-.002.132.198.43 0 .52-.823-.12-1.486-.63-2.15-.965-.718-.36-1.468-.604-2.074-1.11-.716-.323-1.26-.817-1.778-1.335-.208-.312-.542-.496-.667-.89-.378-.164-.174-.912-.74-.89-.315-.042-.345.2-.444.37-.07.228-.36.233-.37.52-.005.046-.012.088-.075.075-.17 1.09-.526 1.992-.518 3.26.13.415.35.738.593 1.038-.418.05-.716.222-.89.52-.06 1.072.378 1.646.742 2.296.134.384.352.685.593.963.017.228.206.287.296.444.02.105.123.125.15.223-.04.105.288.18.072.22-.413.132-1.016.07-1.26.372-.108.278-.108.832 0 1.11.035.237.283.262.297.52.5.416 1.082.746 1.63 1.11.575.167 1.212.272 1.853.37-.102.344-.338.552-.593.742-.78.38-1.85.474-2.742.74-.555.038-.956.23-1.556.223-.333.127-.854.075-1.112.223-.122.068-.102.096-.222.22-.134.413.11.74.444.89-.005.254.22.277.37.372.09.183.255.29.446.37.544.468 1.268.76 1.927 1.112.83.183 1.648.376 2.52.52.896.115 1.9.123 2.816.22h.963c.51.133 1.23.055 1.852.075.095-.102.322-.073.52-.074.52-.27 1.195-.385 1.63-.74.574-.24.99-.642 1.557-.89.865-.765 1.936-1.324 2.518-2.37.205-.19.35-.438.445-.74.265-.156.385-.454.593-.667.404-.41.706-.924 1.037-1.4.32-.496.576-1.054.89-1.556-.01-.405.306-.484.296-.89.192-.226.176-.662.37-.88-.033-.255.03-.415.074-.594.047-1.28-.047-2.422-.297-3.407.588-.156 1.18-.303 1.63-.594.52-.206.994-.603.81-1.28zm-3.408 4.076c-.153.86-.615 1.41-1.038 2.002.06.38-.104.538-.073.89-.158.31-.287.65-.37 1.036-.204.267-.333.606-.52.89-.366.548-.777 1.05-1.186 1.557-.377.56-.91.965-1.333 1.48-.42.494-.942.886-1.407 1.335-.474.17-.89.396-1.26.667-.232.09-.463.18-.667.296-.177.146-.5.145-.668.29-1.086.147-2.3.17-3.555.148-1.03-.104-2.115-.158-3.04-.37-.92-.19-1.51-.712-2.296-1.037.153-.242.634-.154.963-.222.03-.165.394-.002.444-.148.258.06.286-.11.52-.07.564-.2 1.23-.302 1.706-.593.282-.14.406-.435.667-.594.033-.19.104-.34.222-.444.047-.275.2-.44.148-.815.11-.21.3-.343.296-.667-.075-.147-.13-.316-.297-.37-.026-.197-.377-.068-.444-.223-.256.032-.417-.03-.594-.075-.154-.043-.487.092-.52-.073-.84-.024-1.3-.43-1.852-.74.43-.263 1.032-.354 1.333-.743.516-.076 1.058-.13 1.112-.666 0-.716-.772-.66-1.334-.814-.773-.66-1.194-1.672-1.78-2.52.24-.157.565-.226.742-.444.454.058.54-.25.667-.52.02-.488-.333-.605-.593-.815-.26-.21-.475-.462-.667-.74-.003-.818-.02-1.652.074-2.372.062-.014.07.03.073.074.227.44.56.774.815 1.185.532.357.925.853 1.556 1.112.452.413 1.108.62 1.557 1.038.602.263 1.16.57 1.705.89.67.193 1.056.672 2 .592.2-.098.395-.2.594-.297.257-.456-.06-1.08.146-1.63.255-.66.797-1.03 1.26-1.48.29-.156.555-.336.815-.52.348-.098.676-.216.965-.37.376-.02.713-.077 1.037-.148h1.26c.244.052.475.12.74.148.21.137.38.313.666.37.79.694 1.27 1.697 1.41 3.04-.123.484.052.873 0 1.48zm.296-5.63c-.13.34-.23.706-.593.814-.016-.105-.12-.125-.146-.222-.012-.21.21-.186.296-.296.162-.085.245-.248.444-.297-.007-.09.108-.047 0 0zm-5.484 3.037c.163.135.284.31.52.37.1.222.313.328.593.37.047-.15.346-.048.37-.22.174-.024.166-.23.296-.298-.02-.55-.13-1.007-.37-1.334-.76-.423-1.677.04-1.41 1.11z"/></symbol><symbol id="icon-video" viewBox="0 0 32 32"><path d="M26 15l6-4v16l-6-4v-8zm-2 0v8c0 2.21-1.79 4-4 4H4c-2.21 0-4-1.79-4-4v-8c0-2.21 1.79-4 4-4h10c0-1.105.895-2 2-2V7H5c-.553 0-1-.447-1-1s.447-1 1-1h12c.553 0 1 .447 1 1v3c1.105 0 2 .895 2 2 2.21 0 4 1.79 4 4zm-12 0H4v8h8v-8zm8 1c0-.553-.447-1-1-1h-4c-.553 0-1 .447-1 1s.447 1 1 1h4c.553 0 1-.447 1-1z"/></symbol></svg>