<svg xmlns="http://www.w3.org/2000/svg" width="101.615" height="34.056" viewBox="0 0 101.615 34.056"><path d="M19.135 21.495c-.083-2.683-.51-5.347-.475-8.035.028-2.174.39-4.41-.36-6.495.047-.237.096-.473.14-.71.193-1.046-3.27-.493-3.813.463-.343.28-.52.615-.375.957.037.086.07.174.102.26-.656 3.205-1.57 6.307-2.62 9.413-.403 1.188-.89 2.35-1.3 3.533-.58-1.103-1.168-2.193-1.642-3.376C7.418 14.07 6.18 10.602 4.505 7.298 4.695 5.77 1.3 5.93.632 7.33c-.81 1.694-.705 3.403-.438 5.214.3 2.042.353 4.05.377 6.11.048 3.977.36 7.944.418 11.92-.354.395-.46.88-.09 1.375.16.215.36.38.57.548.904.724 3.5.107 3.496-1.27-.014-4.124-.312-8.24-.42-12.36-.01-.403-.018-.806-.024-1.21l.17.435c.64 1.604 1.31 3.163 2.186 4.654.868 1.478 1.303 3.064 1.803 4.677-.19.217-.304.462-.234.708-.04.18.07.292.25.36.64.548 1.842.274 2.51-.007.287-.12.56-.26.826-.424.345-.21.883-.678.73-1.158-.03-.093-.06-.186-.088-.28.47-1.27.71-2.588.965-3.93.27-1.427.78-2.78 1.294-4.132.052.62.106 1.238.156 1.855.204 2.554.033 5.072.007 7.626-.008.848.054 1.634.22 2.462.067.343.366 1.808.28 1.887-.61.563-.433 1.256.385 1.436.915.2 2.08-.105 2.77-.742 1.198-1.106.632-2.845.36-4.24-.45-2.343.096-4.965.023-7.35zM27.5 22.17c-.075-1.988-.766-3.862-.775-5.872-.01-2.305.18-4.593-.155-6.886-.106-.725-4.056.1-3.917 1.05.31 2.11.197 4.23.16 6.354-.038 2.044.467 3.898.73 5.904.268 2.054-.085 4.157.148 6.213.11.962.75 2.743.09 3.58-.42.532 1.47.342 1.553.326.77-.143 1.793-.393 2.304-1.04.653-.827.196-2.425.053-3.356-.316-2.06-.114-4.195-.19-6.274zM43.828 18.85c-2.062-2.783-5.89-.78-8.56-1.54-1.378-.39-1.396-2.27-1.393-3.395.004-1.426-.114-2.732-.273-4.146-.12-1.053-.024-2.122.746-2.905.142-.144.86-.336.81-.34.354-.06.676-.075 1.067-.092 1.55-.066 4.613.232 4.02 2.483-.267 1.01 3.595.43 3.876-.637 1.214-4.6-7.283-3.715-9.685-3.08-2.21.59-4.648 1.847-4.775 4.4-.06 1.22.273 2.38.325 3.587.06 1.39-.198 2.776.29 4.118 1.08 2.982 5.52 1.576 7.777 1.745 3.845.287 2.697 5.47 2.748 7.883.027 1.288 1.18 3.43.21 4.507-.594.662-1.98.7-2.79.768-.814.068-2.202.312-2.743-.46-.993-1.42.09-3.8-.12-5.426-.122-.924-4.067-.095-3.918 1.05.34 2.627-1.4 6.145 2.4 6.596 2.442.29 5.192-.16 7.5-.928 1.197-.396 2.308-.942 3.244-1.793 1.035-.94.694-2.348.417-3.547-.676-2.918.732-6.28-1.172-8.85zM61.155 18.662c-.122-3.777-.69-7.513-.706-11.297-.01-1.97-3.964-1.305-3.958.343.015 3.608.497 7.167.682 10.764l.013.22c-1.95-.017-3.9.178-5.853.247.2-4.634-.61-9.228-.435-13.858.02-.582-3.875-.09-3.918 1.05-.17 4.474.587 8.914.453 13.39-.064 2.137-.245 4.265-.26 6.403-.006 1.095.172 2.183.33 3.263.146 1 .484 2.33.182 3.318-.237.772 3.56.29 3.862-.694.543-1.778-.223-4.04-.406-5.84-.175-1.724-.04-3.498.083-5.247 2.03-.13 4.06-.297 6.08-.012.09 1.378.196 2.754.322 4.134.104 1.157.178 2.313.195 3.475.015 1.02.142 2.496-.22 3.46-.774 2.058 3.15 1.89 3.722.365.703-1.87.502-4.2.383-6.164-.148-2.443-.477-4.874-.555-7.32zM78.087 23.136c-.94-2.758-2.373-5.177-3.616-7.797 1.002-1.95 2.02-3.9 2.933-5.89.83-1.807 1.446-3.818 3.08-5.09.574-.448.55-.897-.255-.952-.875-.06-2.064.192-2.77.742-1.485 1.158-2.427 2.563-3.2 4.268-.933 2.05-1.897 4.063-2.915 6.075l-.224.443c-.49.315-.786.762-.64 1.266-.792 1.563-1.6 3.117-2.5 4.61-.298-5.534-.954-11.06-1.15-16.6-.044-1.27-3.97-.48-3.916 1.05.243 6.867 1.22 13.718 1.286 20.586-.016.017-.03.034-.047.05-.3.31-.19.495.05.603.003 1.75-.058 3.502-.208 5.255-.472.745.463 1.14 1.084 1.14h.095c.74 0 2.626-.35 2.718-1.365.19-2.1.25-4.196.232-6.29 1.59-1.716 2.89-3.63 4.055-5.636.76 1.48 1.482 2.972 1.99 4.582.86 2.74 2.298 5.26 3.13 8.014.544 1.806 4.457.738 3.917-1.05-.83-2.752-2.204-5.296-3.13-8.014zM101.59 18.5c-.21-.83-1.372-.848-2.27-.77-.013-.334-.02-.67-.037-1.005-.125-2.66-.165-5.38-.392-8.032-.208-2.458-1.584-3.337-3.97-3.247-2.417.092-5.23.527-7.483 1.403-2.607 1.013-4.058 2.934-4.56 5.68-.548 3.014.24 6.22.374 9.246.155 3.503.067 7.014.063 10.52 0 .572 3.916.03 3.917-1.05.003-2.776.042-5.55 0-8.327-.013-.82-.05-1.633-.102-2.445 1.37-.593 3.687.012 5.05.14 1.107.105 2.17-.165 3.244-.29.02 2.31.107 4.634.202 6.943.05 1.184.477 3.53-.354 4.51-.437.517 1.48.344 1.555.33.793-.145 1.76-.4 2.303-1.04.95-1.12.456-3.79.4-5.126-.077-1.91-.1-3.824-.14-5.737 1.154-.147 2.417-.854 2.202-1.704zm-14.618-.15c-.103-1.244-.217-2.49-.303-3.742-.16-2.33.116-5.583 2.29-7 .58-.378 1.674-.314 2.353-.437.97-.175 1.956-.388 2.83.19 1.21.803.91 3.658.91 4.87-.003 2.005.207 4 .31 6.003-.552.055-1.11.09-1.683.076-2.286-.054-4.544-.414-6.708.04zM24.108 6.7c.52-.05 1.045-.226 1.477-.524l.256-.216c.52-.335.973-.827.73-1.36-.505-1.106-.424-2.232-.417-3.415C26.16.227 25.19-.06 24.373.01c-.724.064-2.17.582-2.176 1.52-.006.994-.07 2.017.11 2.993-.048.113-.075.24-.105.355-.055.212.016.42.142.59l.002.134.015.335c.074.232.217.41.43.53.388.233.878.275 1.318.233z"/></svg>