<svg xmlns="http://www.w3.org/2000/svg" width="85.589" height="35.034" viewBox="32.458 20.216 85.589 35.034"><path d="M36.638 46.517c-.014-3.472-.262-6.938-.356-10.41-.008-.34-.015-.68-.02-1.02l.146.364c.54 1.353 1.103 2.664 1.84 3.92.73 1.245 1.098 2.58 1.52 3.94-.16.182-.256.39-.196.596-.033.15.06.245.212.306.537.46 1.55.23 2.113-.008.242-.102.474-.22.696-.355.29-.182.744-.573.613-.978-.024-.08-.05-.157-.072-.235.396-1.068.598-2.18.813-3.308.23-1.207.66-2.346 1.092-3.486.042.52.087 1.044.128 1.56.174 2.147.028 4.27.008 6.422-.008.713.046 1.375.184 2.075.06.288.31 1.522.235 1.58-.516.477-.366 1.062.326 1.212.772.17 1.754-.088 2.334-.625 1.01-.934.53-2.396.304-3.572-.385-1.973.077-4.18.017-6.19-.07-2.26-.43-4.502-.4-6.768.024-1.83.33-3.714-.302-5.47.04-.2.08-.4.117-.6.163-.88-2.754-.415-3.212.39-.29.236-.438.52-.313.807.03.07.057.146.084.22-.553 2.698-1.322 5.312-2.208 7.93-.34 1-.748 1.976-1.095 2.977-.49-.932-.986-1.85-1.384-2.846-1.155-2.89-2.2-5.813-3.61-8.596.16-1.29-2.698-1.153-3.26.02-.683 1.426-.593 2.866-.37 4.393.254 1.722.298 3.412.32 5.148.04 3.347.3 6.69.35 10.04-.297.33-.388.74-.077 1.158.136.182.306.32.482.46.756.632 2.945.113 2.94-1.05zM54.834 28.145c-.09-.613-3.416.084-3.3.885.26 1.776.167 3.56.136 5.352-.03 1.722.394 3.282.615 4.97.226 1.733-.07 3.503.126 5.236.09.812.633 2.312.075 3.018-.354.447 1.237.285 1.31.275.646-.12 1.51-.33 1.938-.874.552-.697.165-2.042.045-2.82-.267-1.734-.097-3.537-.162-5.286-.06-1.676-.644-3.254-.65-4.946-.01-1.953.153-3.877-.132-5.81zM57.958 34.79c.91 2.515 4.648 1.328 6.55 1.472 3.24.24 2.273 4.607 2.314 6.64.022 1.086.995 2.89.18 3.8-.503.555-1.67.588-2.353.645-.688.057-1.855.26-2.313-.39-.836-1.194.077-3.2-.102-4.568-.103-.78-3.424-.08-3.3.883.29 2.21-1.178 5.175 2.023 5.556 2.06.243 4.372-.137 6.317-.784 1.008-.334 1.943-.792 2.73-1.51.873-.793.586-1.978.353-2.986-.57-2.458.616-5.29-.987-7.454-1.737-2.345-4.96-.657-7.21-1.297-1.162-.33-1.176-1.912-1.17-2.86 0-1.203-.1-2.303-.232-3.492-.1-.887-.02-1.787.628-2.447.12-.12.723-.282.68-.28.3-.05.573-.06.9-.075 1.305-.056 3.886.195 3.387 2.092-.226.85 3.028.363 3.266-.53 1.02-3.874-6.14-3.13-8.16-2.593-1.863.494-3.916 1.555-4.023 3.704-.052 1.027.23 2.006.274 3.022.054 1.154-.164 2.322.248 3.45zM72.413 36.66c-.053 1.8-.208 3.594-.22 5.394-.006.92.146 1.842.278 2.75.123.84.408 1.964.153 2.796-.198.646 3 .242 3.254-.587.458-1.497-.188-3.402-.34-4.918-.148-1.45-.033-2.945.07-4.42 1.71-.11 3.42-.25 5.12-.01.076 1.162.164 2.32.272 3.48.087.975.15 1.947.163 2.928.015.855.12 2.1-.185 2.913-.65 1.73 2.655 1.59 3.136.3.592-1.577.423-3.537.323-5.194-.13-2.06-.404-4.106-.47-6.166-.102-3.183-.58-6.33-.594-9.51-.007-1.66-3.338-1.1-3.33.288.01 3.04.416 6.037.57 9.068.005.06.008.12.01.18-1.64-.016-3.28.15-4.93.207.172-3.903-.514-7.772-.363-11.673.02-.492-3.264-.077-3.3.883-.143 3.78.496 7.52.383 11.29zM86.493 42.032c-.254.26-.16.414.045.506 0 1.474-.05 2.95-.178 4.424-.396.63.39.96.912.96h.082c.622 0 2.21-.293 2.29-1.148.16-1.77.21-3.535.195-5.3 1.336-1.445 2.433-3.056 3.415-4.747.64 1.248 1.247 2.505 1.676 3.86.726 2.31 1.94 4.432 2.638 6.75.46 1.522 3.754.622 3.298-.884-.7-2.32-1.856-4.462-2.638-6.75-.79-2.322-1.998-4.36-3.046-6.568.845-1.64 1.7-3.283 2.47-4.96.698-1.524 1.22-3.216 2.594-4.29.483-.375.464-.754-.216-.8-.737-.054-1.738.16-2.334.625-1.25.974-2.042 2.158-2.694 3.595-.784 1.726-1.598 3.42-2.455 5.117-.06.123-.125.248-.188.373-.413.264-.66.642-.54 1.064-.666 1.315-1.347 2.626-2.104 3.884-.252-4.66-.803-9.317-.97-13.983-.035-1.067-3.344-.402-3.296.887.204 5.785 1.024 11.557 1.083 17.34l-.04.045zM118.027 35.8c-.177-.7-1.155-.716-1.914-.648-.01-.28-.017-.566-.03-.85-.105-2.24-.138-4.53-.328-6.764-.176-2.07-1.335-2.812-3.346-2.734-2.036.077-4.405.443-6.303 1.183-2.197.853-3.42 2.47-3.84 4.784-.465 2.54.2 5.24.312 7.79.13 2.95.055 5.91.053 8.86 0 .483 3.297.026 3.297-.885.004-2.338.037-4.676 0-7.014-.01-.687-.043-1.373-.085-2.056 1.155-.5 3.106.01 4.255.118.933.09 1.826-.138 2.732-.244.017 1.946.09 3.905.17 5.85.042.998.402 2.976-.297 3.8-.368.436 1.25.288 1.31.28.668-.124 1.482-.338 1.94-.87.8-.942.383-3.192.337-4.316-.065-1.61-.086-3.223-.12-4.834.972-.137 2.036-.733 1.855-1.448zm-6.662-.162c-1.928-.046-3.828-.35-5.65.036-.087-1.05-.184-2.098-.256-3.154-.135-1.962.098-4.702 1.927-5.896.492-.318 1.413-.264 1.984-.368.82-.147 1.648-.328 2.385.16 1.018.676.77 3.08.766 4.1 0 1.69.178 3.37.263 5.06-.466.046-.94.072-1.418.062zM51.16 24.322c-.05.18.012.356.118.497l.002.113c.004.094.01.188.013.282.062.194.182.343.362.446.325.197.737.233 1.108.197.44-.04.882-.19 1.245-.44l.216-.182c.438-.282.818-.697.612-1.146-.424-.933-.358-1.88-.35-2.87.005-.81-.812-1.052-1.5-.99-.61.054-1.828.49-1.832 1.28-.007.835-.062 1.697.092 2.52-.04.09-.064.195-.087.292zM112.736 53.505c-1.558-.585-3.283-.615-4.85-.787-1.604-.17-3.246-.41-4.885-.562-1.636.053-3.31.027-4.97.13l-4.88.267c-6.488.29-13 .253-19.518.107-6.517-.123-13.045-.477-19.63-.453-3.288.008-6.565.1-9.862.25-1.632.283-3.24.5-4.904.913-1.615.4-3.145.907-4.794 1.048 1.623.362 3.34.292 4.962.297 1.58.01 3.243.143 4.872.23 3.23-.17 6.487-.245 9.733-.25 6.486-.023 13.014.33 19.564.452 6.548.146 13.114.186 19.683-.11l4.907-.27c1.603-.07 3.198-.126 4.83-.066 1.627-.147 3.252-.33 4.917-.53 1.665-.24 3.22-.628 4.855-.51l.074.006.005-.055c.02-.177-.04-.322-.04-.478-.033.12-.038.256-.07.373z"/></svg>