<svg xmlns="http://www.w3.org/2000/svg" width="20.294" height="18.849" viewBox="264.205 370.961 20.294 18.849"><path fill="#231F20" d="M283.75 378.19h-3.15l-3.408-6.814c-.185-.37-.634-.52-1.006-.335-.37.187-.52.637-.335 1.007l3.072 6.143h-9.138l3.072-6.143c.185-.37.035-.82-.335-1.006-.37-.184-.82-.034-1.005.336l-3.407 6.814h-3.15c-.415 0-.75.336-.75.75s.335.75.75.75h.156l.855 2.99c-.188.138-.317.348-.317.596 0 .396.31.71.697.74l1.656 5.794h12.697l1.656-5.795c.387-.028.697-.344.697-.74 0-.248-.13-.458-.316-.595l.855-2.99h.157c.414 0 .75-.337.75-.75s-.338-.75-.752-.75zm-4.18 10.12h-10.434l-1.224-4.283h12.88l-1.223 4.284zm1.652-5.784h-13.74l-.81-2.836h15.36l-.81 2.836z"/></svg>