<svg xmlns="http://www.w3.org/2000/svg" width="23.494" height="20.168" viewBox="52.253 53.771 23.494 20.168"><path fill="#231F20" d="M75.706 57.855c-.227-.366-.91-.277-1.407-.37h-1.113c.142-.354.343-.647.52-.964.056-.437.254-.733.223-1.26.13-.166.176-.416.296-.592.104-.144.242-.477.074-.667-.05-.22-.295-.248-.593-.22-.088.035-.17.078-.222.147-.448.433-.778 1.014-1.26 1.408-.01.008-.063 0-.075 0-.087.005-.033.046-.075.074-.146.097-.257.15-.37.222-.283.176-.546.445-.89.52-.53-.212-1.156-.327-1.852-.37-1.157.1-2.303.214-3.038.74-.91.35-1.477 1.042-2.15 1.63-.048.32-.34.398-.37.74-.004.046-.01.09-.072.075.043.24-.05.345-.074.52-.002.132.198.43 0 .52-.823-.12-1.486-.63-2.15-.965-.718-.36-1.468-.604-2.074-1.11-.716-.323-1.26-.817-1.778-1.335-.208-.312-.542-.496-.667-.89-.378-.164-.174-.912-.74-.89-.315-.042-.345.2-.444.37-.07.228-.36.233-.37.52-.005.046-.012.088-.075.075-.17 1.09-.526 1.992-.518 3.26.13.415.35.738.593 1.038-.418.05-.716.222-.89.52-.06 1.072.378 1.646.742 2.296.134.384.352.685.593.963.017.228.206.287.296.444.02.105.123.125.15.223-.04.105.288.18.072.22-.413.132-1.016.07-1.26.372-.108.278-.108.832 0 1.11.035.237.283.262.297.52.5.416 1.082.746 1.63 1.11.575.167 1.212.272 1.853.37-.102.344-.338.552-.593.742-.78.38-1.85.474-2.742.74-.555.038-.956.23-1.556.223-.333.127-.854.075-1.112.223-.122.068-.102.096-.222.22-.134.413.11.74.444.89-.005.254.22.277.37.372.09.183.255.29.446.37.544.468 1.268.76 1.927 1.112.83.183 1.648.376 2.52.52.896.115 1.9.123 2.816.22h.963c.51.133 1.23.055 1.852.075.095-.102.322-.073.52-.074.52-.27 1.195-.385 1.63-.74.574-.24.99-.642 1.557-.89.865-.765 1.936-1.324 2.518-2.37.205-.19.35-.438.445-.74.265-.156.385-.454.593-.667.404-.41.706-.924 1.037-1.4.32-.496.576-1.054.89-1.556-.01-.405.306-.484.296-.89.192-.226.176-.662.37-.88-.033-.255.03-.415.074-.594.047-1.28-.047-2.422-.297-3.407.588-.156 1.18-.303 1.63-.594.52-.206.994-.603.81-1.28zm-3.408 4.076c-.153.86-.615 1.41-1.038 2.002.06.38-.104.538-.073.89-.158.31-.287.65-.37 1.036-.204.267-.333.606-.52.89-.366.548-.777 1.05-1.186 1.557-.377.56-.91.965-1.333 1.48-.42.494-.942.886-1.407 1.335-.474.17-.89.396-1.26.667-.232.09-.463.18-.667.296-.177.146-.5.145-.668.29-1.086.147-2.3.17-3.555.148-1.03-.104-2.115-.158-3.04-.37-.92-.19-1.51-.712-2.296-1.037.153-.242.634-.154.963-.222.03-.165.394-.002.444-.148.258.06.286-.11.52-.07.564-.2 1.23-.302 1.706-.593.282-.14.406-.435.667-.594.033-.19.104-.34.222-.444.047-.275.2-.44.148-.815.11-.21.3-.343.296-.667-.075-.147-.13-.316-.297-.37-.026-.197-.377-.068-.444-.223-.256.032-.417-.03-.594-.075-.154-.043-.487.092-.52-.073-.84-.024-1.3-.43-1.852-.74.43-.263 1.032-.354 1.333-.743.516-.076 1.058-.13 1.112-.666 0-.716-.772-.66-1.334-.814-.773-.66-1.194-1.672-1.78-2.52.24-.157.565-.226.742-.444.454.058.54-.25.667-.52.02-.488-.333-.605-.593-.815-.26-.21-.475-.462-.667-.74-.003-.818-.02-1.652.074-2.372.062-.014.07.03.073.074.227.44.56.774.815 1.185.532.357.925.853 1.556 1.112.452.413 1.108.62 1.557 1.038.602.263 1.16.57 1.705.89.67.193 1.056.672 2 .592.2-.098.395-.2.594-.297.257-.456-.06-1.08.146-1.63.255-.66.797-1.03 1.26-1.48.29-.156.555-.336.815-.52.348-.098.676-.216.965-.37.376-.02.713-.077 1.037-.148h1.26c.244.052.475.12.74.148.21.137.38.313.666.37.79.694 1.27 1.697 1.41 3.04-.123.484.052.873 0 1.48zm.296-5.63c-.13.34-.23.706-.593.814-.016-.105-.12-.125-.146-.222-.012-.21.21-.186.296-.296.162-.085.245-.248.444-.297-.007-.09.108-.047 0 0zm-5.484 3.037c.163.135.284.31.52.37.1.222.313.328.593.37.047-.15.346-.048.37-.22.174-.024.166-.23.296-.298-.02-.55-.13-1.007-.37-1.334-.76-.423-1.677.04-1.41 1.11z"/></svg>