<svg xmlns="http://www.w3.org/2000/svg" width="100.678" height="76.891" viewBox="247.3 382.56 100.678 76.891"><path fill="#63D1BB" d="M344.255 400.708s-.92-7.008-3.785-10.078c-3.632-4.04-7.674-4.066-9.54-4.297-13.327-1.023-33.304-1.023-33.304-1.023h-.05s-19.98 0-33.305 1.023c-1.866.23-5.907.256-9.54 4.297-2.84 3.096-3.785 10.078-3.785 10.078s-.896 8.21-.896 16.422v7.7c0 8.21.946 16.42.946 16.42s.92 7.01 3.785 10.078c3.633 4.04 8.365 3.913 10.488 4.35 7.622.766 32.356 1.02 32.356 1.02s20.003-.024 33.33-1.047c1.866-.23 5.907-.255 9.54-4.297 2.84-3.07 3.785-10.078 3.785-10.078s.945-8.21.945-16.42v-7.7c-.023-8.236-.97-16.447-.97-16.447z"/><path fill="#FFF" d="M297.614 459.45h-.016c-1.015-.012-24.946-.267-32.604-1.038l-.14-.014-.137-.028c-.27-.056-.668-.107-1.126-.167-2.502-.328-7.158-.938-10.838-5.02-3.354-3.615-4.377-10.77-4.483-11.575l-.006-.043c-.04-.342-.965-8.463-.965-16.736v-7.7c0-8.266.874-16.378.91-16.72l.01-.07c.108-.803 1.155-7.93 4.474-11.558 3.996-4.44 8.53-4.9 10.712-5.12.192-.02.37-.038.53-.06l.125-.012c13.278-1.02 33.313-1.03 33.515-1.03h.05c.202 0 20.237.012 33.515 1.03l.126.013c.16.02.337.038.53.058 2.178.222 6.71.683 10.703 5.113 3.353 3.616 4.376 10.77 4.482 11.577l.005.043c.04.342.965 8.46.99 16.753v7.708c0 8.273-.926 16.395-.965 16.736l-.007.053c-.108.805-1.156 7.953-4.478 11.562-3.994 4.435-8.527 4.896-10.707 5.117-.193.02-.37.037-.53.057l-.126.012c-13.276 1.02-33.334 1.057-33.535 1.058h-.016zm-31.944-6.498c7.477.73 31.216.99 31.968.997.657-.002 20.135-.05 33.047-1.037l.58-.062c1.836-.185 4.608-.467 7.186-3.334l.027-.03c1.825-1.973 2.853-6.927 3.075-8.55.06-.515.926-8.36.926-16.08v-7.7c-.023-7.76-.896-15.627-.95-16.11-.32-2.38-1.435-6.788-3.067-8.538l-.034-.038c-2.577-2.868-5.35-3.15-7.186-3.336-.21-.02-.402-.04-.58-.062-13.066-.998-32.834-1.01-33.033-1.01h-.05c-.2 0-19.968.012-33.034 1.01-.177.02-.37.04-.58.062-1.835.187-4.607.468-7.186 3.336l-.02.02c-1.827 1.994-2.854 6.925-3.08 8.553-.063.59-.876 8.4-.876 16.09v7.698c0 7.75.872 15.6.927 16.084.32 2.38 1.433 6.79 3.066 8.54l.035.038c2.322 2.584 5.303 2.975 7.48 3.26.48.06.938.12 1.362.2z"/><g><path fill="#FFF" d="M285.733 403.138v35.708l29.747-17.854"/></g></svg>