<svg xmlns="http://www.w3.org/2000/svg" width="40.219" height="62.411" viewBox="-259.404 -19.675 40.219 62.411"><path d="M-244.227 18.283c-.286.966-.245 2.19.027 3.64.494 2.634 1.687 6.04 2.358 9.67h5.062c.696-3.642 1.95-7.05 2.47-9.684.288-1.446.33-2.66.042-3.618-.275-.9-.89-1.618-2.02-2.303h-5.998c-1.075.678-1.674 1.39-1.94 2.293zM-232.395 38.278h-13.8c-1.292 0-2.298.976-2.298 2.23v2.228h18.398v-2.23c0-1.252-1.007-2.228-2.3-2.228zM-225.262-17.446h-11.732c0-1.244-1.015-2.23-2.3-2.23-1.283 0-2.3.986-2.3 2.23h-11.737l-6.074 25.517c.794-.46 1.59-.99 2.632-.99 1.36 0 2.243.817 2.924 1.374.682.557 1.162.85 1.447.85.29 0 .768-.288 1.45-.837.68-.548 1.564-1.358 2.915-1.358 1.35 0 2.237.805 2.92 1.353.683.55 1.16.84 1.45.84.146 0 .338-.073.58-.214.242-.142.53-.354.872-.627.512-.41 1.14-.967 1.99-1.218.284-.085.593-.136.93-.136 1.347 0 2.238.804 2.92 1.353.683.548 1.16.84 1.45.84.288-.002.767-.296 1.446-.85.684-.554 1.57-1.367 2.925-1.367 1.356 0 2.24.817 2.92 1.37.34.277.63.49.87.632.24.143.432.214.576.214.288 0 .762-.293 1.442-.854.68-.56 1.567-1.384 2.93-1.384 1.043 0 1.838.533 2.63.997l-6.078-25.506zM-235.88 33.82h-6.865c-.657 0-1.15.48-1.15 1.115s.493 1.113 1.15 1.113h6.9c.655 0 1.15-.48 1.15-1.113 0-.636-.495-1.115-1.15-1.115h-.036zM-239.295 9.336c-.146 0-.338.074-.58.213-.157.093-.37.26-.57.41v3.73h2.3V9.96c-.506-.38-.91-.624-1.15-.624z"/></svg>