<svg xmlns="http://www.w3.org/2000/svg" width="21.769" height="21.334" viewBox="53.115 53.19 21.769 21.334"><path fill="#231F20" d="M74.88 65.336c-.012-2.395-.343-4.788-.302-7.135-.023-.787-.086-1.534-.152-2.277-.105-.3-.11-.7-.152-1.062-.26-.17-.222-.64-.456-.834-.423-.233-1.2-.114-1.744-.22-.657-.026-1.254-.115-1.9-.153-1.935-.1-3.972-.076-5.995-.076-2.002 0-3.955-.145-5.696-.38h-2.202c-.097.005-.105.1-.227.077-.6.034-1.077.188-1.595.303-.21.12-.42.235-.683.304-.136.193-.513.146-.607.38-.186.212.185.45 0 .607v.91c.173.13.027.58.075.836v.987c-.017 1.28.134 2.397.076 3.72.468 2.762.375 6.537.077 9.413.155.58.363 1.105.455 1.746.256.478.335 1.132.683 1.52.502.205 1.233.185 1.898.228.383.098.667.293 1.14.3 2.843-.21 5.496-.154 8.427-.23 2.704.24 5.802.19 8.275-.227.195-.133.128-.528.228-.76-.056-.384.207-.448.228-.758.132-2.395.165-4.79.15-7.216zM61.9 59.11c.756-.152 1.48-.34 2.428-.303.71.076 1.287.283 1.897.456.116.184-.243.547.153.684v.076c.06.017.15.002.15.076.446.034.795.166 1.064.378.45.055.536.476 1.138.3-.09.213-.084.524-.075.835.324 1.183.475 2.81.303 4.252-.164.163-.215.442-.303.683-.31.322-.48.785-.836 1.062-.096.236-.25.408-.455.533-.116.213-.206.452-.457.53-.298.163-.577.01-.834-.076-.446.162-.904.312-1.215.607-.817-.096-1.65-.175-2.43-.304-.243-.14-.488-.273-.836-.305-.227-.204-.496-.364-.836-.455-.1-.127-.337-.118-.455-.23-.198-.028-.23-.226-.456-.228-.118-.412-.443-.618-.532-1.062-.226-.33-.308-.805-.455-1.215-.043-1.434.09-2.692.38-3.796.345-.592.778-1.095 1.137-1.67.25.02.365-.09.38-.305.306.053.434-.072.684-.075.258.008.27-.31.46-.45zm-1.67-2.732c-.118-.263-.067-.69-.076-1.062-.007-.285.278-.28.304-.532-.003-.074-.093-.06-.152-.076.126-.146.7-.097.834 0 .132.537-.354.455-.53.684.01.167.32.032.455.076.03.854-.06 1.496 0 2.202h-.456c-.008.234.228.226.455.228-.06.286.092.363.075.607-.226.153-.716.042-1.062.075-.103-.594.235-1.375.15-2.202zm-.684-1.594c.088-.013.134.016.15.076.18.253.01.683-.075.91-.172-.178-.025-.68-.074-.986zm.152 1.822c-.132-.07-.168-.237-.152-.456.132.07.167.238.152.456zm0 1.367c-.058.14-.082-.045-.076-.152.058-.138.08.046.076.153zm-.152.228c.175-.023.084.22.228.228-.01.193-.283.18-.38.077.04-.112.113-.193.152-.304zm-2.354-1.215c.006-.108.013-.214-.076-.228-.073-.733.13-1.415 0-1.973.25-.155.77-.042 1.14-.077v1.14c-.09.063-.204.1-.38.076-.054.28.324.13.38.304.007.853-.057 1.777.15 2.43-.564-.06-.905.106-1.44.075.096-.612-.02-1.435.53-1.594-.012-.14-.257-.047-.304-.153zm-.53 0c-.205.02-.218-.534-.078-.607.328.006.25.5.077.607zm-.153.988c.076-.312.033-.304.074-.683.228.013.26.77-.075.683zm.227-2.05c-.263.054-.273-.266-.153-.38.263-.053.272.267.153.38zm0-1.14c.033.16-.052.202-.076.305-.175.023-.083-.22-.228-.23.025-.1.19-.06.305-.074zm-.228 3.722c.147-.03.11.345-.077.227.04-.062.08-.124.076-.227zm-.685-3.72c.03.258-.438.32-.38 0h.38zm-.987.075c-.034.22-.326.18-.38.38-.213-.17.085-.47.38-.38zm-.455.76c.226-.206.45-.41.684-.608-.02-.123.07-.13.076-.228h.23c.1.38-.262.296-.306.53.02.123-.072.132-.075.228.02.335.12.588.075.988-.27.008-.276.28-.607.227.022-.428-.135-.674-.077-1.138zm.076 3.264V57.29c.194-.185.395-.364.606-.532.295.49.18 1.392.455 1.897-.274.157-.75.11-1.06.23zm18.22 11.084c-.11.954-.158 1.968-.38 2.81-2.89.122-6.02.004-8.882.152-.2.045-.273-.03-.23-.23-.252 0-.257.248-.53.23.2-.336.438-.898.15-1.29-.796.012-.796.82-1.137 1.29-.685-.053-1.136.127-1.822.075.18-.705.75-1.02.91-1.745-.394-.55-.988.138-1.213.455-.204.48-.557.81-.76 1.29H57.8c.238-.47.49-.926.76-1.366.17-.513.624-.742.682-1.368-.157-.28-.42-.03-.683 0-.124.182-.273.335-.38.53-.233.377-.502.715-.685 1.14-.18.21-.335.004-.53.228-.39.27-.58.736-.988.987-.174-.06.04-.356.153-.38.045-.18-.096-.55.075-.607.063-.366.212-.647.38-.91.118-.742.52-1.2.683-1.898-.56.1-.674.643-.988.987-.212.444-.542.77-.683 1.29-.174-.13-.028-.58-.076-.836.123-.586.3-1.12.38-1.746.134-.22.174-.535.23-.834.167-.21.045-.61-.078-.76-.226.026-.374.132-.455.303-.192-.032-.193.506-.304.304-.045-2.586-.45-4.81-.456-7.437.026-.33-.183-.424-.228-.685 1.628.028 3.12.09 4.782.23-.09.138-.2.256-.304.378-.144.07-.226.173-.378.304-.604 1.653-.975 3.984-.607 6.15.23.58.59 1.03.986 1.44.906.486 1.634 1.15 2.505 1.672 1.7.36 3.84.37 5.54 0 .237-.12.485-.226.686-.38 1.365-1.242 2.754-2.46 2.962-4.86v-1.366c-.197-1.598-.688-2.905-1.747-3.644.33-.22 1.1.043 1.67.076.223.013.447.014.684 0 .407-.024.927-.055 1.442 0 .144.187.113.544.228.76-.062 1.684-.192 3.3-.152 5.087.103.454.127.986.23 1.44-.092.974-.238 1.89-.458 2.733zm.38-11.16c-.64-.12-1.233-.284-1.898-.38.072-.332.8-.01.987-.227.384-.222.294-.92.303-1.51.032-.347.114-.643.076-1.062-.402-.95-1.784-.42-2.887-.455-.225.718-.47 1.8-.304 2.657.168.49 1.023.292 1.518.456-.14.332-.688.057-.987.076-.295-.083-.706-.052-.985-.15-2.285.077-4.284.003-6.53.15.118-1.248.064-2.465-.075-3.645h3.112c-.344.364-.912.507-1.29.835-.44.244-.86.505-1.14.91.25.135.536-.244.76-.378.355-.074.48-.38.835-.455.423-.44 1.096-.626 1.67-.913.378-.022.697.013.987.077 1.283.007 2.456.126 3.796.076.614.145 1.45.07 1.974.304.107.298.23.58.305.91.007.987-.15 1.817-.23 2.724zm-5.846-3.72c.11-.047-.01-.092 0 0zm0 0c-.53.154-1.02.348-1.367.682.484-.198 1.06-.306 1.367-.682zm1.062.607c.11-.047-.007-.09 0 0zm-1.746.91c.727-.157 1.18-.59 1.746-.91-.437.02-.592.32-.987.38-.216.216-.6.26-.76.53zm-.683-.834c-.11.048.007.093 0 0zm-.683.608c.11-.046-.008-.092 0 0zm-.075.076c.062.014.07-.03.074-.076-.064-.014-.072.03-.075.076zm-.078.076c.064.014.072-.03.077-.076-.068-.013-.073.03-.078.076zm-.834.608c.346-.134.613-.348.834-.607-.348.134-.615.348-.834.608zm2.276.987c.533-.05.75-.416 1.215-.53.283-.3.783-.382.986-.76-.56.022-.766.398-1.216.53-.284.297-.75.413-.986.76zm-2.276-.987c-.317-.074-.016.227 0 0zm-.533.38c.02.02.115-.038.076-.078-.02-.02-.115.038-.075.077zm2.81.607c-.11.047.006.09 0 0zm-1.14 1.82c-.224-.23-.677-.232-.987-.378-.697-.038-1.223.093-1.746.23-.304.15-.607.303-.91.453-.266.166-.444.417-.76.532-.205.225-.352.51-.684.607-.004.222-.173.28-.304.378-.09.115-.094.312-.227.38-.007.12.036.29-.076.304.11 1.512.292 2.948.684 4.177.287.622.975.845 1.442 1.29.59.296 1.328.443 2.126.53.277-.052.553-.105.91-.076 1.21-.21 2.1-.736 2.81-1.44.1-.282.253-.51.456-.685-.254-.672.293-1.1.455-1.59.002-1.345-.2-2.48-.607-3.416-.256-.58-.92-.75-1.366-1.14-.06-.017-.15-.002-.15-.076-.27-.136-.734-.24-1.066-.082zm-3.416 4.328c-.114-.063-.11-.244-.153-.38.256-.077.118.238.152.38zm.075.305c.04-.117.08-.006.076.075-.04.118-.078.005-.075-.075zm.456-2.05c.016-.087.076-.043.076 0-.014.086-.075.042-.075 0zM64.1 60.4c-.202.258.042.576.078.836-.305-.04-.574-.887-.077-.836zm.38 3.948c-.04-.038.055-.097.076-.076.04.038-.054.097-.076.076zm.76 2.884c.033-.11.065.008.15 0-.017.097-.15.077-.15 0zm2.2-2.58c-.233-.058-.145.207-.38.15.07-.158.12-.337.23-.454.134.02.172.13.15.303zm-1.137-3.797c.21.12.44.217.606.38.084.22.242.364.38.53.057.778.178 1.492.15 2.354-.257.1-.438.272-.683.382-.78-.006-1.358-.212-1.897-.456-.17-.26-.355-.505-.532-.76v-1.06c.17-.186.32-.392.456-.608.228-.127.508-.2.454-.607-.038-.06-.078-.123-.075-.228.158.045.245.16.38.23.322.016.41-.2.76-.155z"/></svg>