<svg xmlns="http://www.w3.org/2000/svg" width="54.156" height="23.183" viewBox="612.532 500.386 54.156 23.183"><path d="M652.844 506.098c-3.647-.97-7.84-1.667-12.36-1.666-2.89 0-5.456.243-7.71.623l-6.783-4.668-13.455.005 5.81 6.184h8.448c-4.58 1.598-6.76 3.515-6.76 3.515l.003 3.778s2.313 1.912 6.93 3.518l-8.622-.005-5.81 6.19h13.454l6.816-4.69c2.26.397 4.822.646 7.68.647 4.523 0 8.713-.697 12.36-1.667-1.175-1.775-1.914-3.743-1.917-5.877.003-2.14.738-4.112 1.917-5.885zM656.267 507.132c-1.284 1.605-1.97 3.25-1.965 4.84-.007 1.597.677 3.238 1.968 4.847 6.4-2.163 10.42-4.842 10.42-4.842s-4.02-2.68-10.423-4.846z"/></svg>