<svg xmlns="http://www.w3.org/2000/svg" width="148.051" height="72.707" viewBox="0 0 148.051 72.707"><path d="M143.165 31.397c-1.48 1.055-3.053 1.942-4.657 2.777.037-1.747-.12-3.465-.59-5.127.05-.333.1-.667.144-1.002.375-3.005.657-7.122-2.003-9.224-.336-.264-1.25-.034-1.923.275-.157-.15-.322-.29-.496-.415-.08-.242-.158-.487-.228-.735-.035-.12-.168-.188-.36-.215.285-.383.263-.818-.42-1.092-.377-.152-.758-.287-1.142-.413-.067-.072-.126-.096-.172-.058l-.006.003c-.938-.3-1.893-.533-2.86-.705.14-.33.397-.813.553-1 .132-.157.28-.3.43-.44.06-.056.124-.11.187-.164.032-.026.053-.045.07-.06l.083-.062c.38-.288.846-.865.22-1.202-.57-.307-1.506-.142-2.006.238-.864.655-1.627 1.38-2.093 2.36-2.01-.168-4.05-.154-6.08-.077.063-.076.113-.158.142-.25.183-.585-.91-.525-1.19-.488-1.56.204-3.124.406-4.687.603 1.367-3.773 3.083-8.578 1-12.264-1.19-2.107-3.905-2.58-6.097-2.653-2.436-.08-4.898.46-7.036 1.636-4.762 2.618-7.11 7.71-8.21 13.138-.497-.656-2.3-.424-2.645.47-.124.32-.23.644-.327.97-.16.175-.282.387-.345.638-.015.056-.027.11-.04.167l-.197.007c.02-.104.04-.207.064-.31.146-.11.247-.232.28-.366.574-2.296 1.156-4.588 1.948-6.82.27-.756-2.51-.4-2.804.426-.424 1.193-.786 2.403-1.12 3.622-.165.078-.356.187-.425.326-.018.034-.032.07-.048.104-.107-.093-.27-.15-.466-.178v-.96c0-.43-2.823-.033-2.823.758v1.568c-.167.072-.327.158-.472.266l-.19.172c-.072.07-.112.152-.12.245-.006.026-.012.053-.022.078-.017.022-.032.046-.052.066-.126.127-.184.334-.027.466.19.16.507.167.737.16l.146-.012v.468c-.226 0-.45-.003-.675-.006l-.41-.05c-.022-.386-.677-.453-1.352-.33.006-.048.007-.097 0-.147-.102-.596-.175-1.193-.23-1.79.237-.08.47-.18.68-.314.16-.102.328-.224.328-.43v-.194c0-.18-.412-.204-.5-.208-.194-.01-.393.01-.588.04-.075-1.304-.08-2.614-.08-3.924 0-.84-2.825-.315-2.824.757 0 1.786.01 3.57.193 5.343-.087-.002-.178 0-.27.01v-1.533c0-1.045-1.297-1.22-2.147-.81.313-.26.49-.62.37-1.038-.403-1.415-.778-2.828-.974-4.288-.188-1.394-3.017-.677-2.824.756.196 1.46.57 2.873.975 4.287.235.828 1.338.89 2.104.51-.228.196-.374.452-.374.76v.63c-.19-.098-.44-.16-.77-.16-1.057 0-1.67.885-1.4 1.477-.164-.027-.327-.054-.49-.083-.383-1.25-.687-2.515-.715-3.83-.02-.943-1.27-1.05-2.107-.673-.008-.056-.022-.11-.05-.168-.384-.805-.566-1.675-.78-2.534-.33-1.35-3.157-.6-2.822.756.158.638.3 1.28.52 1.898l-.056.014c-.3.08-.6.205-.854.387-.832.08-1.828.566-1.752 1.21.058.477.13.952.21 1.426-.547.09-1.093.177-1.64.26-.29-.787-.5-1.6-.618-2.443-.13-.924-1.555-.854-2.332-.26-.774-2.062-1.796-4.02-3.122-5.76-2.62-3.44-7.097-4.614-11.242-3.795-1.9.376-3.735 1.184-5.043 2.646-1.21 1.353-1.35 3.09-1.17 4.805.16 1.492.61 4.004 1.585 5.975-.35-.012-.71.04-.95.14-.282.116-.56.247-.832.387-1.94.03-3.877.02-5.803-.07-4.18-.194-8.3-.86-12.497-.742-.923.026-1.534.72-1.465 1.262-1.046.502-1.733 1.315-2.143 2.287-1.732-1.15-3.48-2.267-5.335-3.212-.69-.35-3.3.707-2.285 1.224 1.84.938 3.56 2.072 5.278 3.216.512.34 1.32.133 1.842-.07.03-.012.09-.04.165-.077-.306 1.44-.157 3.068.24 4.494.03.11.094.198.173.27-.02.338-.023.677-.007 1.015 0 .054 0 .108-.002.164-.4.19-.712.48-.76.84-.188 1.41-.278 2.82-.305 4.228-.273.2-.463.47-.486.798-.233 3.345.037 6.652.467 9.95.186 2.694.69 5.344 1.173 8 .058.415.113.83.167 1.248-.265 1.133-.398 2.395-.237 3.482-.88.17-1.73.866-1.233 1.617.765 1.158 1.644 2.018 2.606 2.65-.633-.104-1.42.11-1.87.554-.82.81-1.716 1.532-2.534 2.34-.43.424-.314.935.29 1.078.65.155 1.515-.06 1.996-.535.817-.808 1.715-1.53 2.533-2.34.25-.244.31-.516.205-.73 3.21 1.735 7.235 1.27 11.114.943-.883 1.59-1.543 3.273-2.17 4.997-.263.72 2.506.373 2.8-.436.61-1.675 1.237-3.343 2.103-4.895 3.74.117 7.48.122 11.215.05.15.183.416.306.746.337 3.27.31 6.49-.097 9.688-.7 4.79-.23 9.577-.525 14.366-.81 7.527-.185 15.056-.345 22.587-.32.1.11.204.216.314.32.27.255.62.344.978.33.062.008.128.015.2.018.713.036 1.427.087 2.14.145.156.04.34.06.56.046h.004c.782.066 1.563.14 2.346.207.17.214.497.342.792.36 3.804.25 7.612.523 11.423.704.14.23.536.34.82.344 7.067.06 15.278 2.804 21.558-1.736.502-.362.274-.877-.263-.984-.108-.02-.217-.03-.326-.034.01-.016.02-.03.024-.045 1.195-2.77 2.174-5.633 2.945-8.552.364-.198.63-.494.645-.86.05-1.19.188-2.406.37-3.64.167-.883.314-1.77.442-2.66.387-2.168.806-4.366 1.018-6.54 2.28-1.147 4.538-2.335 6.622-3.82 1.565-1.116-.784-1.882-1.832-1.136zM87.835 16.35c-.05.04-.094.08-.134.124.074-.312.15-.623.23-.934h.11c-.068.27-.138.54-.205.81z"/><path d="M63.26 12.626c.128.196.563.217.754.217.377 0 .76-.083 1.106-.225.404-.166 1.1-.56.77-1.07-.363-.562-.61-1.19-.975-1.754-.127-.196-.562-.217-.754-.217-.375 0-.757.083-1.104.226-.404.165-1.1.558-.77 1.07.363.56.61 1.19.975 1.753zM20.683 10.907c.216.647 1.11.647 1.648.504.473-.126 1.39-.615 1.176-1.26-.208-.623-.433-1.292-.893-1.78-.48-.506-1.324-.416-1.902-.15-.41.19-1.176.838-.694 1.35.382.404.478.77.667 1.337zM30.66 13.895c.843 0 3.073-1.276 1.186-1.276-.843 0-3.074 1.275-1.186 1.275zM122.562 12.274c.346.072.717.032 1.055-.06.32-.085.7-.233.94-.476.356-.355.73-.73.963-1.178.104-.198.174-.4-.005-.587-.188-.197-.507-.245-.763-.25-.376-.01-.76.073-1.106.22-.252.105-.62.293-.756.552-.098.186-.218.353-.35.513l-.024.027-.028.032-.195.2c-.158.157-.346.364-.28.613.064.24.334.35.55.394zM135.86 17.692c.632-.06 1.396-.246 1.895-.662 1.32-1.102 2.603-2.248 3.623-3.642.288-.393-1.05-.243-1.118-.23-.534.1-1.316.276-1.66.746-.95 1.296-2.165 2.35-3.392 3.374-.498.415.44.434.653.414zM146.74 44.77h-4.872c-.616 0-1.475.467-1.556 1.138-.09.74.754.922 1.304.922h4.87c.618 0 1.476-.468 1.558-1.14.09-.738-.754-.92-1.304-.92zM57.02 60.784c-.497.08-1.41.296-1.638.83-.538 1.273-.98 2.572-1.364 3.898-.21.733 2.57.333 2.798-.45.383-1.328.825-2.626 1.363-3.898.22-.527-.967-.412-1.16-.38zM61.602 63.375c-.347-.003-.696.063-1.03.152-.332.09-.67.207-.967.383-.14.084-.338.2-.338.39 0 .116-.007.23-.02.346-.026.103-.06.2-.126.286l.013-.014c-.064.082-.108.18.018.253.197.115.503.084.713.063.374-.037.745-.127 1.1-.252.242-.084.612-.206.794-.406.15-.164.24-.286.284-.5.036-.178.05-.35.05-.53 0-.166-.42-.168-.488-.17zM116.652 67.05c-.354-.685-3.043.332-2.823.758.843 1.638 1.938 3.122 2.922 4.677.436.69 3.04-.414 2.823-.757-.982-1.554-2.08-3.04-2.923-4.677zM120.744 64.713c-.294-.588-1.067-.563-1.624-.414-.35.093-1.485.597-1.2 1.17l1.17 2.338c.294.588 1.068.562 1.624.414.35-.094 1.486-.598 1.2-1.17l-1.17-2.34zM5.668 43.105c-1.486.36-3.006.57-4.48.975-.538.146-1.343.64-1.16 1.318.18.675 1.127.71 1.663.562 1.477-.403 2.996-.615 4.483-.975.54-.13 1.338-.65 1.16-1.318-.185-.685-1.124-.692-1.665-.562z"/><g><g fill="#FFF"><path d="M43.752 40.106c-.083-2.707-.514-5.396-.48-8.108.03-2.194.394-4.45-.362-6.554.047-.24.097-.477.14-.717.196-1.055-3.3-.497-3.848.468-.346.283-.523.62-.377.965.037.087.07.175.102.263-.662 3.233-1.584 6.364-2.645 9.498-.406 1.2-.896 2.37-1.31 3.566-.587-1.114-1.18-2.214-1.658-3.408-1.386-3.464-2.636-6.965-4.326-10.3.192-1.542-3.232-1.38-3.907.033-.815 1.71-.71 3.435-.44 5.263.302 2.06.355 4.086.38 6.167.048 4.012.36 8.016.42 12.027-.356.397-.465.89-.09 1.388.162.217.364.385.575.554.913.73 3.533.107 3.528-1.284-.014-4.16-.314-8.312-.424-12.47-.012-.408-.02-.815-.025-1.223l.173.438c.646 1.62 1.322 3.192 2.205 4.697.876 1.49 1.315 3.092 1.82 4.72-.19.218-.306.466-.235.714-.04.182.07.295.253.364.646.552 1.86.277 2.533-.007.29-.122.566-.263.834-.427.348-.215.89-.686.735-1.17-.03-.093-.06-.187-.088-.28.475-1.282.716-2.613.975-3.966.274-1.44.788-2.805 1.306-4.17.053.624.107 1.248.157 1.87.206 2.578.033 5.12.008 7.697-.008.855.055 1.65.222 2.485.068.345.37 1.824.283 1.904-.617.57-.438 1.267.39 1.45.922.202 2.1-.107 2.794-.75 1.208-1.117.637-2.87.363-4.28-.46-2.362.093-5.008.02-7.414zM52.192 40.788c-.074-2.007-.77-3.897-.78-5.925-.012-2.327.182-4.635-.157-6.95-.107-.73-4.093.102-3.953 1.06.312 2.13.2 4.268.16 6.412-.036 2.063.473 3.934.738 5.958.27 2.073-.085 4.195.15 6.27.11.972.758 2.77.09 3.613-.424.537 1.482.345 1.568.33.775-.143 1.81-.395 2.324-1.048.66-.835.198-2.448.054-3.387-.32-2.08-.115-4.235-.194-6.332zM68.67 37.438c-2.08-2.81-5.942-.787-8.64-1.554-1.39-.396-1.406-2.292-1.402-3.428.004-1.44-.115-2.757-.276-4.184-.12-1.06-.024-2.14.753-2.93.143-.146.866-.34.817-.342.356-.062.683-.077 1.077-.094 1.56-.067 4.653.234 4.055 2.506-.27 1.02 3.63.435 3.913-.643 1.224-4.64-7.352-3.75-9.774-3.107-2.23.592-4.692 1.862-4.82 4.438-.06 1.23.275 2.402.33 3.62.06 1.404-.2 2.803.29 4.156 1.092 3.01 5.57 1.59 7.85 1.76 3.88.29 2.72 5.52 2.77 7.956.028 1.3 1.193 3.46.214 4.55-.6.667-2 .705-2.817.773-.82.07-2.22.315-2.767-.465-1.002-1.43.093-3.834-.12-5.474-.123-.933-4.105-.096-3.954 1.06.345 2.65-1.413 6.2 2.423 6.654 2.464.293 5.238-.162 7.568-.936 1.208-.4 2.33-.95 3.273-1.81 1.045-.95.7-2.37.42-3.58-.68-2.942.74-6.332-1.182-8.926zM86.155 37.248c-.122-3.812-.696-7.582-.71-11.4-.01-1.99-4-1.317-3.994.346.016 3.64.502 7.232.69 10.862.002.074.007.148.01.223-1.966-.02-3.933.178-5.904.247.203-4.675-.617-9.31-.438-13.983.022-.587-3.91-.09-3.953 1.06-.172 4.515.593 8.996.457 13.513-.064 2.155-.247 4.303-.262 6.46-.008 1.105.173 2.204.332 3.293.147 1.008.488 2.352.183 3.35-.238.778 3.594.292 3.897-.702.55-1.794-.224-4.076-.408-5.892-.177-1.74-.04-3.53.084-5.296 2.048-.13 4.096-.3 6.135-.012.09 1.39.197 2.78.325 4.172.106 1.168.18 2.334.198 3.507.016 1.028.143 2.52-.223 3.492-.78 2.074 3.18 1.905 3.757.367.71-1.887.507-4.237.386-6.22-.15-2.468-.48-4.92-.56-7.39zM103.242 41.762c-.948-2.783-2.395-5.224-3.65-7.868 1.01-1.967 2.037-3.935 2.96-5.942.838-1.824 1.46-3.854 3.107-5.14.578-.45.554-.903-.26-.96-.882-.06-2.082.195-2.794.75-1.498 1.168-2.448 2.587-3.23 4.307-.94 2.068-1.913 4.1-2.94 6.13-.073.148-.15.297-.225.447-.493.318-.79.77-.644 1.277-.798 1.578-1.614 3.146-2.52 4.653-.303-5.584-.964-11.162-1.162-16.75-.045-1.282-4.007-.485-3.953 1.058.247 6.93 1.23 13.845 1.3 20.775-.017.017-.032.034-.05.05-.302.312-.19.5.054.607.002 1.767-.06 3.534-.21 5.303-.478.752.466 1.15 1.093 1.15h.098c.746 0 2.65-.354 2.742-1.377.193-2.12.254-4.234.234-6.35 1.606-1.73 2.917-3.662 4.094-5.686.766 1.494 1.495 3 2.007 4.625.87 2.766 2.32 5.308 3.16 8.087.55 1.82 4.497.744 3.952-1.06-.84-2.778-2.225-5.345-3.16-8.088zM126.96 37.085c-.212-.84-1.385-.857-2.292-.777-.013-.338-.02-.677-.036-1.016-.127-2.686-.168-5.428-.396-8.105-.21-2.48-1.6-3.368-4.008-3.276-2.438.094-5.277.533-7.55 1.417-2.632 1.023-4.096 2.96-4.6 5.733-.556 3.04.24 6.275.376 9.33.155 3.536.066 7.08.062 10.615 0 .58 3.952.03 3.953-1.06.002-2.8.042-5.6 0-8.4-.015-.827-.053-1.648-.105-2.467 1.382-.6 3.72.013 5.097.143 1.117.106 2.188-.166 3.273-.293.02 2.333.108 4.678.204 7.008.048 1.194.48 3.563-.357 4.552-.44.52 1.493.347 1.568.333.802-.147 1.778-.404 2.325-1.05.958-1.13.46-3.824.405-5.173-.08-1.928-.103-3.86-.143-5.79 1.166-.15 2.44-.864 2.223-1.722zm-14.752-.152c-.104-1.257-.22-2.513-.306-3.777-.16-2.352.118-5.634 2.31-7.062.587-.383 1.69-.317 2.377-.442.978-.177 1.973-.393 2.854.192 1.22.81.92 3.69.918 4.913-.002 2.024.21 4.038.313 6.058-.558.056-1.122.09-1.698.077-2.307-.055-4.584-.418-6.77.04zM48.77 25.176c.527-.05 1.056-.23 1.49-.53.088-.072.174-.145.26-.218.525-.338.98-.834.735-1.373-.51-1.115-.428-2.25-.42-3.445.007-.966-.972-1.257-1.797-1.185-.73.064-2.188.586-2.194 1.534-.007 1-.072 2.033.11 3.02-.05.112-.075.24-.105.357-.057.214.015.424.143.595l.002.135.015.338c.074.235.218.413.433.535.39.236.884.28 1.328.236z"/></g></g></svg>