<svg xmlns="http://www.w3.org/2000/svg" width="112.389" height="46.087" viewBox="19.137 15.003 112.389 46.087"><path d="M129.364 56.884c4.394.868.843-35.858.147-38.31-1.96-6.57-26.676-2.145-32.18-1.718-12.722.987-25.188-.96-37.61-.376-6.205.292-34.854-1.813-37.52 1.986-5.047 7.208-2.65 25.797-1.277 35.076-4.043.78 2.31 4.154 3.138 4.897 6.315 2.19 16.36-.22 23.008.395 15.434 1.472 31.797-2.194 47.276-.955 4.496 1.144 9.604 1.02 14.224 1.24 3.414 5.57 19.664-2.462 20.796-2.236-.1-.02.507.1 0 0z"/><g fill="#FFF"><path d="M45.195 39.413c-.08-2.546-.484-5.074-.45-7.624.025-2.064.37-4.186-.342-6.165.043-.225.09-.45.132-.675.184-.992-3.103-.467-3.62.44-.325.266-.492.584-.354.908.036.082.066.165.097.247-.623 3.04-1.49 5.985-2.487 8.932-.382 1.128-.843 2.23-1.232 3.354-.553-1.048-1.11-2.082-1.56-3.205-1.303-3.257-2.48-6.55-4.068-9.685.18-1.452-3.04-1.3-3.674.03-.767 1.607-.668 3.23-.416 4.948.285 1.938.334 3.842.358 5.8.045 3.77.34 7.537.396 11.31-.335.373-.438.836-.087 1.306.153.203.344.362.542.52.857.688 3.322.102 3.317-1.206-.013-3.91-.295-7.815-.4-11.727-.01-.382-.016-.765-.02-1.148.054.137.107.275.162.41.606 1.523 1.242 3.002 2.072 4.417.824 1.4 1.237 2.907 1.71 4.437-.178.206-.287.44-.22.674-.038.17.067.276.238.343.606.52 1.747.26 2.38-.008.274-.114.533-.247.785-.4.327-.203.838-.646.69-1.1l-.082-.266c.447-1.205.674-2.457.917-3.73.26-1.355.742-2.64 1.23-3.923.048.587.1 1.176.146 1.762.194 2.42.03 4.81.008 7.235-.01.803.05 1.55.208 2.337.064.324.348 1.714.266 1.79-.58.535-.412 1.192.366 1.363.868.19 1.975-.1 2.628-.705 1.137-1.05.6-2.7.342-4.024-.43-2.22.09-4.71.02-6.973zM53.132 40.056c-.07-1.888-.725-3.666-.734-5.573-.01-2.188.172-4.358-.146-6.535-.1-.688-3.85.095-3.717.996.293 2.002.187 4.014.15 6.03-.034 1.94.445 3.698.695 5.602.254 1.95-.08 3.945.14 5.897.104.913.713 2.603.085 3.398-.398.506 1.394.323 1.474.31.728-.135 1.7-.37 2.185-.986.62-.784.186-2.3.05-3.185-.3-1.956-.11-3.984-.183-5.954zM68.63 36.903c-1.958-2.64-5.59-.74-8.126-1.46-1.308-.372-1.323-2.155-1.32-3.224.004-1.354-.107-2.593-.26-3.936-.11-.998-.02-2.013.71-2.755.134-.138.814-.32.767-.323.336-.058.644-.072 1.014-.088 1.47-.064 4.376.22 3.814 2.355-.253.958 3.413.41 3.68-.604 1.15-4.363-6.914-3.525-9.192-2.92-2.098.557-4.412 1.75-4.53 4.174-.06 1.156.256 2.258.308 3.404.057 1.32-.188 2.635.273 3.907 1.027 2.83 5.238 1.495 7.38 1.656 3.65.272 2.56 5.19 2.608 7.48.025 1.225 1.12 3.256.2 4.28-.565.626-1.88.663-2.65.728-.77.064-2.088.296-2.603-.438-.942-1.345.087-3.605-.114-5.146-.115-.88-3.86-.09-3.717.995.326 2.49-1.327 5.83 2.28 6.257 2.318.275 4.926-.152 7.118-.88 1.135-.377 2.188-.895 3.077-1.702.982-.892.66-2.228.396-3.365-.64-2.77.696-5.956-1.11-8.397zM85.07 36.725c-.114-3.584-.653-7.13-.67-10.72-.006-1.87-3.76-1.238-3.753.326.014 3.425.472 6.802.646 10.216l.012.21c-1.85-.018-3.7.168-5.553.232.19-4.396-.58-8.756-.41-13.15.02-.552-3.678-.084-3.72.996-.16 4.248.56 8.46.43 12.71-.06 2.025-.23 4.045-.246 6.073-.007 1.04.164 2.074.312 3.098.138.947.458 2.212.172 3.15-.224.73 3.38.274 3.666-.66.516-1.687-.21-3.834-.383-5.54-.167-1.637-.04-3.32.078-4.98 1.926-.124 3.853-.282 5.77-.012.085 1.308.187 2.613.306 3.924.1 1.1.17 2.194.187 3.298.016.966.135 2.367-.21 3.282-.733 1.953 2.99 1.792 3.533.347.667-1.775.477-3.984.363-5.85-.145-2.32-.455-4.627-.53-6.95zM101.14 40.97c-.893-2.616-2.253-4.912-3.432-7.398.95-1.85 1.915-3.7 2.782-5.588.788-1.715 1.373-3.624 2.922-4.833.545-.423.522-.85-.243-.9-.83-.06-1.96.18-2.63.703-1.408 1.1-2.3 2.433-3.035 4.05-.885 1.946-1.8 3.856-2.765 5.765-.07.14-.14.28-.213.42-.465.3-.744.724-.606 1.202-.75 1.484-1.517 2.96-2.37 4.375-.283-5.25-.905-10.496-1.093-15.752-.04-1.205-3.768-.455-3.715.996.23 6.516 1.155 13.02 1.22 19.535-.016.017-.03.033-.046.048-.285.293-.18.47.05.57.003 1.66-.056 3.323-.198 4.986-.448.708.44 1.08 1.03 1.08h.09c.702 0 2.49-.33 2.58-1.294.182-1.992.237-3.98.22-5.97 1.51-1.628 2.742-3.445 3.85-5.35.72 1.406 1.405 2.822 1.887 4.35.816 2.603 2.182 4.992 2.97 7.605.52 1.714 4.23.702 3.718-.995-.792-2.61-2.093-5.024-2.974-7.604zM123.443 36.573c-.2-.79-1.302-.807-2.156-.73-.012-.32-.02-.638-.033-.957-.12-2.525-.158-5.104-.37-7.622-.2-2.33-1.506-3.167-3.77-3.08-2.294.087-4.963.5-7.102 1.332-2.475.962-3.852 2.784-4.326 5.39-.522 2.86.227 5.902.354 8.776.146 3.324.062 6.655.06 9.98 0 .545 3.716.03 3.716-.996.004-2.633.04-5.268 0-7.9-.013-.777-.05-1.55-.097-2.318 1.3-.563 3.498.01 4.79.133 1.053.1 2.06-.154 3.08-.274.02 2.193.1 4.4.19 6.59.048 1.123.454 3.352-.334 4.28-.414.49 1.405.326 1.475.314.754-.14 1.672-.38 2.187-.988.9-1.062.433-3.597.38-4.863-.073-1.815-.096-3.63-.134-5.444 1.095-.145 2.294-.816 2.09-1.623zm-13.872-.143c-.098-1.183-.206-2.364-.287-3.552-.15-2.212.11-5.298 2.172-6.642.553-.36 1.59-.298 2.235-.416.922-.166 1.856-.37 2.685.18 1.148.763.865 3.47.863 4.62-.002 1.905.198 3.798.295 5.7-.524.05-1.056.083-1.597.072-2.17-.053-4.31-.394-6.365.038zM49.915 25.373c.495-.047.992-.215 1.4-.497.083-.068.163-.138.245-.206.493-.318.92-.785.69-1.29-.48-1.05-.403-2.118-.395-3.242.006-.908-.914-1.182-1.69-1.114-.685.06-2.057.55-2.062 1.443-.007.942-.068 1.913.104 2.84-.046.106-.07.226-.1.336-.052.2.016.4.136.56l.002.127.014.318c.07.22.204.388.406.503.367.223.832.264 1.25.223z"/></g></svg>